<?xml version="1.0" encoding="UTF-8"?>
<svg width="19px" height="19px" viewBox="0 0 19 19" version="1.1" xmlns="http://www.w3.org/2000/svg" xmlns:xlink="http://www.w3.org/1999/xlink">
    <!-- Generator: Sketch 45.2 (43514) - http://www.bohemiancoding.com/sketch -->
    <title>icon_invoicing</title>
    <desc>Created with Sketch.</desc>
    <defs></defs>
    <g id="Symbols" stroke="none" stroke-width="1" fill="none" fill-rule="evenodd">
        <g id="sidebar" transform="translate(-27.000000, -196.000000)" fill="#EFEFEF">
            <g transform="translate(-1.000000, 0.000000)" id="icon_invoicing">
                <g transform="translate(28.000000, 196.000000)">
                    <g id="Group">
                        <path d="M18.1391837,7.34408163 C18.8642857,10.2677551 18.084898,13.4861224 15.7971429,15.77 C13.4938776,18.0771429 10.2367347,18.8487755 7.29367347,18.0926531 C8.39489796,18.6626531 9.64734694,18.9844898 10.9773469,18.9844898 C15.4093878,18.9844898 19,15.3938776 19,10.9618367 C19,9.66285714 18.6897959,8.43367347 18.1391837,7.34408163 L18.1391837,7.34408163 Z" id="Shape"></path>
                        <path d="M16.6889796,5.89 C17.4140816,8.81367347 16.6346939,12.0320408 14.3469388,14.3159184 C12.0436735,16.6191837 8.78653061,17.3946939 5.83959184,16.6346939 C6.94081633,17.2046939 8.19326531,17.5265306 9.52326531,17.5265306 C13.9553061,17.5265306 17.5459184,13.9359184 17.5459184,9.50387755 C17.5459184,8.20489796 17.2357143,6.97571429 16.6889796,5.89 L16.6889796,5.89 Z" id="Shape"></path>
                        <path d="M8.02265306,0.0155102041 C3.59061224,0.0155102041 0,3.60612245 0,8.03816327 C0,12.4702041 3.59061224,16.0608163 8.02265306,16.0608163 C12.4546939,16.0608163 16.0453061,12.4702041 16.0453061,8.03816327 C16.0453061,3.60612245 12.4546939,0.0155102041 8.02265306,0.0155102041 L8.02265306,0.0155102041 Z M8.75163265,12.2957143 L8.75163265,12.7997959 C8.75163265,13.2030612 8.42591837,13.5287755 8.02265306,13.5287755 C7.61938776,13.5287755 7.29367347,13.2030612 7.29367347,12.7997959 L7.29367347,12.2957143 C6.86714286,12.1677551 6.4755102,11.9312245 6.16918367,11.6016327 C5.89387755,11.3108163 5.90938776,10.8493878 6.20020408,10.5740816 C6.49102041,10.2987755 6.95244898,10.3142857 7.2277551,10.605102 C7.43714286,10.8261224 7.71632653,10.9463265 8.02265306,10.9463265 C8.62367347,10.9463265 9.1122449,10.4577551 9.1122449,9.85673469 C9.1122449,9.25571429 8.62367347,8.76714286 8.02265306,8.76714286 L8.02265306,8.76714286 C6.61897959,8.76714286 5.47897959,7.62714286 5.47897959,6.22346939 C5.47897959,5.07183673 6.24673469,4.09857143 7.29755102,3.7844898 L7.29755102,3.28040816 C7.29755102,2.87714286 7.62326531,2.55142857 8.02653061,2.55142857 C8.42979592,2.55142857 8.7555102,2.87714286 8.7555102,3.28040816 L8.7555102,3.7844898 C9.18204082,3.91244898 9.57367347,4.14897959 9.88,4.47857143 C10.1553061,4.76938776 10.1397959,5.23081633 9.84897959,5.50612245 C9.55816327,5.78142857 9.09673469,5.76591837 8.82142857,5.47510204 C8.61204082,5.25408163 8.33285714,5.13387755 8.02653061,5.13387755 C7.4255102,5.13387755 6.93693878,5.62244898 6.93693878,6.22346939 C6.93693878,6.8244898 7.4255102,7.31306122 8.02653061,7.31306122 L8.02653061,7.31306122 C9.43020408,7.31306122 10.5702041,8.45306122 10.5702041,9.85673469 C10.5702041,11.0044898 9.80244898,11.9816327 8.75163265,12.2957143 L8.75163265,12.2957143 Z" id="Shape"></path>
                    </g>
                </g>
            </g>
        </g>
    </g>
</svg>