<?xml version="1.0" encoding="UTF-8"?>
<svg width="18px" height="22px" viewBox="0 0 18 22" version="1.1" xmlns="http://www.w3.org/2000/svg" xmlns:xlink="http://www.w3.org/1999/xlink">
    <!-- Generator: Sketch 45.2 (43514) - http://www.bohemiancoding.com/sketch -->
    <title>icon_employees</title>
    <desc>Created with Sketch.</desc>
    <defs></defs>
    <g id="Symbols" stroke="none" stroke-width="1" fill="none" fill-rule="evenodd">
        <g id="sidebar" transform="translate(-27.000000, -302.000000)" fill="#EFEFEF">
            <g transform="translate(-1.000000, 0.000000)" id="icon_employees">
                <g transform="translate(28.000000, 302.000000)">
                    <g id="Capa_1">
                        <g id="Group">
                            <path d="M16.9804918,2.18537705 C17.5228525,2.18537705 17.9640984,2.62662295 17.9640984,3.16898361 L17.9640984,20.4374262 C17.9640984,20.9797869 17.5228525,21.4210328 16.9804918,21.4210328 L0.997967213,21.4210328 C0.455606557,21.4210328 0.0143606557,20.9797869 0.0143606557,20.4374262 L0.0143606557,3.16898361 C0.0143606557,2.62662295 0.455606557,2.18537705 0.997967213,2.18537705 L6.58155738,2.18537705 L6.58155738,0.491803279 C6.58155738,0.220622951 6.80218033,0 7.07336066,0 L10.9051475,0 C11.1763279,0 11.3969508,0.220622951 11.3969508,0.491803279 L11.3969508,2.18537705 L16.9804918,2.18537705 Z M8.96399381,19.0937449 C10.8551896,19.0937449 12.5194419,18.0887634 13.5028637,16.6199444 C13.5028637,15.0738191 10.4769504,14.2234501 8.96399381,14.2234501 C7.45103719,14.2234501 4.42512395,15.0738191 4.42512395,16.6199444 C5.40854575,18.0887937 7.07279804,19.0937449 8.96399381,19.0937449 Z M9.0585597,8.11625511 C7.77254657,8.11625511 6.78912477,9.12123657 6.78912477,10.4354431 C6.78912477,11.7496496 7.77254657,12.7546311 9.0585597,12.7546311 C10.3445728,12.7546311 11.3279946,11.7496496 11.3279946,10.4354431 C11.3279946,9.12123657 10.3445728,8.11625511 9.0585597,8.11625511 Z M5.46855738,3.66147541 L5.46855738,6.1837377 L12.5099016,6.1837377 L12.5099016,3.66147541 L11.3969508,3.66147541 L11.3969508,4.57160656 C11.3969508,4.84278689 11.1763279,5.06340984 10.9051475,5.06340984 L7.07336066,5.06340984 C6.80218033,5.06340984 6.58155738,4.84278689 6.58155738,4.57160656 L6.58155738,3.66147541 L5.46855738,3.66147541 Z" id="Combined-Shape"></path>
                        </g>
                    </g>
                </g>
            </g>
        </g>
    </g>
</svg>