<?xml version="1.0" standalone="no"?>
<!DOCTYPE svg PUBLIC "-//W3C//DTD SVG 1.1//EN" "http://www.w3.org/Graphics/SVG/1.1/DTD/svg11.dtd" >
<svg xmlns="http://www.w3.org/2000/svg">
<metadata>Generated by IcoMoon</metadata>
<defs>
<font id="icomoon" horiz-adv-x="1024">
<font-face units-per-em="1024" ascent="960" descent="-64" />
<missing-glyph horiz-adv-x="1024" />
<glyph unicode="&#x20;" horiz-adv-x="512" d="" />
<glyph unicode="&#xe900;" glyph-name="icon_account" d="M512 960c-281.6 0-512-230.4-512-512s230.4-512 512-512c281.6 0 512 230.4 512 512s-230.4 512-512 512v0zM512 806.4c87.040 0 153.6-66.56 153.6-153.6s-66.56-153.6-153.6-153.6c-87.040 0-153.6 66.56-153.6 153.6s66.56 153.6 153.6 153.6v0zM512 79.36c-128 0-240.64 66.558-307.2 163.84 0 102.4 204.8 158.72 307.2 158.72s307.2-56.32 307.2-158.72c-66.56-97.28-179.2-163.84-307.2-163.84v0z" />
<glyph unicode="&#xe901;" glyph-name="icon_arrow" d="M117.453 713.838l-82.114-88.15 472.74-440.369 480.553 439.6-81.314 88.889-398.498-364.538z" />
<glyph unicode="&#xe902;" glyph-name="icon_calendar" d="M794.115 723.474c39.406 0 71.327 27.625 71.327 62.018v64.91c0 34.424-31.885 62.141-71.327 62.141s-71.292-27.687-71.292-62.141v-64.94c0.035-34.362 31.885-61.987 71.292-61.987v0zM1012.489 790.502h-143.572v-31.593c0-52.143-48.622-94.626-108.579-94.626-60.028 0-108.544 42.483-108.544 94.626v31.593h-289.721v-31.593c0-52.143-48.693-94.626-108.615-94.626s-108.579 42.453-108.579 94.626v31.593l-144.878 1.569v-789.927l1013.583 0.185-1.095 788.174zM941.162 65.054h-868.705v504.633h868.776v-504.633h-0.071zM251.962 723.474c39.406 0 71.362 27.625 71.362 62.018v64.91c0 34.454-31.956 62.141-71.362 62.141s-71.256-27.687-71.256-62.141v-64.94c0-34.362 31.815-61.987 71.256-61.987v0zM361.412 551.13h114.088v-87.736h-114.088v87.736zM542.118 551.13h114.194v-87.736h-114.194v87.736zM722.824 551.13h114.088v-87.736h-114.088v87.736zM361.412 370.424h114.088v-87.674h-114.088v87.674zM542.118 370.424h114.194v-87.674h-114.194v87.674zM722.824 370.424h114.088v-87.674h-114.088v87.674zM361.412 249.954h114.088v-87.674h-114.088v87.674zM180.706 370.424h114.017v-87.674h-114.017v87.674zM180.706 249.954h114.017v-87.674h-114.017v87.674zM542.118 249.954h114.194v-87.674h-114.194v87.674zM722.824 249.954h114.088v-87.674h-114.088v87.674z" />
<glyph unicode="&#xe903;" glyph-name="icon_contact" d="M512 310.813l-126.683 111.415-362.203-311.977c13.166-12.273 30.939-19.917 50.542-19.917h876.69c19.529 0 37.23 7.643 50.322 19.917l-361.984 311.977-126.683-111.415zM1000.887 805.347c-13.166 12.347-30.866 19.917-50.542 19.917h-876.69c-19.529 0-37.23-7.643-50.395-20.064l488.741-420.893 488.887 421.040zM0 760.736v-610.578l353.499 301.835zM670.501 451.993l353.499-301.835v610.799z" />
<glyph unicode="&#xe904;" glyph-name="icon_credit" d="M984.897 774.621l-627.146 132.722c-26.534 5.614-52.833-11.505-58.447-38.039l-11.915-76.569 723.622-153.13 11.915 76.569c5.614 26.524-11.495 52.831-38.029 58.447v0zM721.165 623.367c-7.325 26.38-34.893 41.972-61.264 34.659l-119.055-33.051-280.666 59.399-30.867-145.845-192.86-53.529c-26.37-7.315-41.962-34.883-34.649-61.254l108.688-391.66c7.325-26.37 34.895-41.972 61.264-34.649l623.449 173.014c26.37 7.325 41.962 34.883 34.649 61.264l-18.656 67.236 69.921-14.783c26.534-5.624 52.833 11.495 58.447 38.029l44.238 209.045-251.861 53.297-10.777 38.828zM793.165 424.309l15.419 72.871c2.316 10.911 13.135 17.948 24.044 15.644l72.871-15.429c10.921-2.316 17.958-13.123 15.654-24.044l-15.419-72.871c-2.316-10.911-13.133-17.958-24.044-15.644l-72.871 15.419c-10.931 2.324-17.97 13.143-15.654 24.054v0zM47.301 445.915l623.427 173.004c0.8 0.216 1.598 0.318 2.378 0.318 3.514 0 7.715-2.306 8.943-6.721l5.143-18.522 16.115-58.067-641.151-177.922-21.258 76.579c-1.332 4.805 1.6 9.999 6.403 11.331v0zM790.757 220.878c0.82-2.972-0.040-5.43-0.912-6.967-0.86-1.536-2.52-3.546-5.491-4.364l-623.437-173.014c-0.788-0.216-1.598-0.328-2.378-0.328-3.514 0-7.715 2.316-8.943 6.731l-63.394 228.449 641.151 177.932 63.404-228.439zM261.654 205.245c-2.992 10.757-14.221 17.108-24.978 14.127l-72.809-20.212c-10.747-2.982-17.108-14.221-14.117-24.978l20.202-72.799c2.992-10.757 14.221-17.108 24.978-14.117l72.809 20.202c10.757 2.982 17.108 14.221 14.127 24.978l-20.212 72.799z" />
<glyph unicode="&#xe905;" glyph-name="icon_dashboard" d="M843.264 670.2c-89.316 76.601-205.227 123.193-332.288 123.193-282.197 0-510.976-228.779-510.976-511.118 0-7.566 0.74-78.222 1.081-85.76v-76.516h1018.937v70.94l0.967 5.575c0.313 7.566 1.109 78.194 1.109 85.76 0.028 250.539-178.83 387.925-178.83 387.925v0zM124.302 196.515c-0.427 4.665 0.171 72.505-0.142 77.17h104.818v33.849h-97.451c0 0.398-7.367-0.057-7.367-0.057 4.124 87.751 37.547 175.303 100.665 244.338l2.645 2.844 4.722-4.096 69.746-69.803 21.902 21.959-74.098 74.041c67.072 61.326 152.178 96.512 242.972 100.551l5.262 0.028c0 0 2.19 0.085 2.048-1.308v-103.367h27.904v104.647c13.767-0.569 27.534-2.19 41.102-4.324 77.966-10.297 150.443-43.947 209.124-97.564l-73.956-74.012 20.565-20.651 71.026 71.054 3.925 3.157 3.356-4.437c61.412-67.129 96.54-152.178 100.665-243.001h-104.704v-33.849l105.188 0.142c0 0 0.085-72.846-0.284-77.056l-779.634-0.256zM648.533 440.739c0 0-166.229-50.972-198.059-82.745-31.886-31.915-31.886-83.484 0.057-115.399 31.772-31.886 83.399-31.886 115.314 0 31.801 31.915 82.688 198.144 82.688 198.144v0z" />
<glyph unicode="&#xe906;" glyph-name="icon_deny" d="M510.951 960c-281.74 0-510.951-229.224-510.951-510.982 0.028-281.73 229.239-510.933 510.951-510.933 281.733 0 510.939 229.205 510.939 510.939 0 281.752-229.205 510.976-510.939 510.976v0zM510.951 866.909c98.472 0 189.077-34.264 260.577-91.468l-586.979-586.972c-57.192 71.494-91.449 162.093-91.459 260.552 0 230.425 187.451 417.888 417.86 417.888v0zM510.951 31.176c-98.468 0-189.080 34.264-260.583 91.468l586.985 586.969c57.192-71.503 91.449-162.115 91.449-260.589-0.003-230.403-187.448-417.848-417.851-417.848v0z" />
<glyph unicode="&#xe907;" glyph-name="icon_dispute" d="M519.889 133.943c-4.798 32.731-32.773 58.057-66.954 58.057h-326.117c-34.109 0-62.079-25.278-66.918-58.057-34.545-10.855-59.9-42.816-59.9-81.013v-23.917h579.789v23.917c0 38.197-25.278 70.117-59.9 81.013v0zM603.069 532.646c0.37 1.074 0.997 2.291 1.253 3.324l22.551 78.912c8.336 28.972-5.609 63.445-31.74 78.501l-102.603 59.31c-25.278 14.614-63.845 9.076-83.925-11.774l-57.024-59.017c-16.977-17.532-35.506-49.607-42.183-73.041l-22.551-78.912c-8.307-28.972 5.574-63.445 31.74-78.501l102.603-59.244c9.781-5.681 21.369-8.671 33.549-8.671 19.233 0 38.090 7.602 50.305 20.408l57.138 58.981c0.734 0.818 1.51 1.921 2.286 2.769l137.148-79.199c3.324-15.503 12.663-29.676 27.498-38.197l167.379-96.63c9.154-5.275 19.119-7.787 28.972-7.787 20.009 0 39.528 10.371 50.233 29.007 15.981 27.724 6.534 63.188-21.19 79.175l-167.414 96.659c-14.799 8.527-31.74 9.631-46.802 4.726l-137.22 79.199zM403.4 855.322c-10.67-18.499-4.32-42.118 14.172-52.781l200.856-116c6.051-3.509 12.693-5.168 19.269-5.168 13.355 0 26.352 6.94 33.507 19.34 10.67 18.523 4.32 42.112-14.172 52.817l-200.85 115.97c-18.457 10.628-42.076 4.35-52.781-14.178v0zM190.028 404.287l200.814-115.964c6.123-3.509 12.77-5.168 19.34-5.168 13.355 0 26.31 6.94 33.507 19.34 10.67 18.493 4.32 42.076-14.172 52.781l-200.85 115.964c-18.457 10.705-42.148 4.356-52.817-14.137-10.664-18.493-4.356-42.148 14.178-52.817v0z" />
<glyph unicode="&#xe908;" glyph-name="icon_download" d="M872.311 609.584c3.374 15.007 5.216 30.618 5.216 46.68 0 114.084-89.999 206.566-201.020 206.566-29.926 0-58.303-6.773-83.82-18.824-45.451 69.883-122.901 115.924-210.841 115.924-138.209 0-250.495-113.713-253.289-255.047-75.515-32.683-128.557-109.416-128.557-198.914 0-119.179 94.019-215.838 210.006-215.838h134.9v218.267c0 48.675 38.537 88.933 85.906 88.933h159.785c47.369 0 84.188-40.254 84.188-88.933v-218.267h191.725c85.865 0 155.469 71.571 155.469 159.804 0 86.235-66.495 156.51-149.669 159.649v0zM643.859 233.634h-20.617v274.764c0 19.421-14.319 35.967-33.218 35.967h-159.211c-18.899 0-34.362-16.546-34.362-35.967v-274.764h-18.332c-11.7 0-22.542-2.595-32.067-6.808-14.429-6.377-25.827-17.408-32.428-31.931-10.958-24.117-6.223-52.298 12.666-75.483l123.117-151.142c15.601-19.156 38.046-30.127 61.581-30.127s45.98 10.989 61.581 30.144l123.127 151.178c18.882 23.178 23.614 51.154 12.656 75.268-6.601 14.52-17.992 25.717-32.421 32.090-9.525 4.22-20.367 6.811-32.070 6.811v0z" />
<glyph unicode="&#xe909;" glyph-name="icon_edit" d="M827.47 906.073c6.917 6.923 16.3 10.811 26.086 10.811s19.165-3.886 26.087-10.808l101.331-101.344c14.409-14.403 14.407-37.763-0.003-52.167l-82.706-82.643c-2.494-2.282-414.792-414.854-414.792-414.854-4.645-4.645-10.449-7.968-16.811-9.622l-136.895-35.549c-3.037-0.785-6.145-1.179-9.26-1.179-9.748 0-19.135 3.862-26.085 10.806-9.244 9.25-12.903 22.696-9.619 35.356l35.54 136.877c1.647 6.362 4.971 12.166 9.624 16.818l414.103 414.103 2.801 2.019c-2.166-1.426-2.316-1.544-2.684-1.916-0.028-0.025 83.283 83.293 83.283 83.293zM847.903 717.552l-55.447 55.451-429.577-429.577-19.446-74.897 74.897 19.45 429.572 429.572zM822.343 796.612l49.169-49.172 31.213 31.213-49.169 49.172-31.213-31.213zM918.003 34.172v562.855c0 20.371 16.519 36.89 36.89 36.89 20.374 0 36.89-16.518 36.89-36.89v-599.749c0-20.371-16.519-36.89-36.89-36.89h-871.411c-20.371 0-36.89 16.519-36.89 36.89v785.161c0 20.371 16.519 36.89 36.89 36.89h509.443c20.371 0 36.89-16.519 36.89-36.89s-16.519-36.89-36.89-36.89h-472.553v-711.376h797.63z" />
<glyph unicode="&#xe90a;" glyph-name="icon_employees" d="M883.456 858.281c25.244 0 45.782-20.538 45.782-45.782v-803.768c0-25.244-20.538-45.782-45.782-45.782h-743.914c-25.244 0-45.782 20.538-45.782 45.782v803.768c0 25.244 20.538 45.782 45.782 45.782h259.891v78.828c0 12.622 10.269 22.891 22.891 22.891h178.352c12.622 0 22.891-10.269 22.891-22.891v-78.828h259.888zM510.324 71.273c88.027 0 165.49 46.777 211.264 115.144 0 71.965-140.843 111.546-211.264 111.546s-211.264-39.581-211.264-111.546c45.774-68.368 123.237-115.144 211.264-115.144zM514.726 582.225c-59.858 0-105.632-46.777-105.632-107.948s45.774-107.948 105.632-107.948c59.858 0 105.632 46.777 105.632 107.948s-45.774 107.948-105.632 107.948zM347.627 789.575v-117.4h327.743v117.4h-51.803v-42.362c0-12.622-10.269-22.891-22.891-22.891h-178.352c-12.622 0-22.891 10.269-22.891 22.891v42.362h-51.805z" />
<glyph unicode="&#xe90b;" glyph-name="icon_entities" d="M1024 140.418c0-84.62-68.778-153.218-153.303-153.218h-717.394c-84.667 0-153.303 69.27-153.303 153.218v615.164c0 84.62 68.778 153.218 153.303 153.218h717.394c84.667 0 153.303-69.27 153.303-153.218v-615.164zM406.513 387.127c-48.744 30.562-82.924 82.28-89.147 142.312-19.879 9.288-41.942 14.63-65.334 14.63-85.398 0-154.613-69.216-154.613-154.6 0-85.398 69.216-154.613 154.613-154.613 84.582 0.026 153.192 68.005 154.482 152.272zM507.804 703.695c-85.398 0-154.613-69.229-154.613-154.613s69.229-154.6 154.613-154.6c85.385 0 154.64 69.229 154.64 154.613s-69.255 154.6-154.64 154.6zM779.101 544.095c-30.246 0-58.388-8.828-82.227-23.866-7.578-49.428-34.075-92.621-71.926-122.038-0.158-2.894-0.434-5.762-0.434-8.683 0-85.398 69.229-154.613 154.587-154.613 85.411 0 154.613 69.216 154.613 154.613 0 85.358-69.202 154.587-154.613 154.587z" />
<glyph unicode="&#xe90c;" glyph-name="icon_invoicing" d="M977.607 564.193c39.079-157.571-2.926-331.024-126.224-454.113-124.134-124.343-299.677-165.93-458.292-125.179 59.35-30.72 126.851-48.065 198.531-48.065 238.864 0 432.379 193.515 432.379 432.379 0 70.008-16.718 136.255-46.393 194.978v0zM899.448 642.56c39.079-157.571-2.926-331.024-126.224-454.113-124.134-124.134-299.677-165.93-458.501-124.97 59.35-30.72 126.851-48.065 198.531-48.065 238.864 0 432.379 193.515 432.379 432.379 0 70.008-16.718 136.255-46.184 194.769v0zM432.379 959.164c-238.864 0-432.379-193.515-432.379-432.379s193.515-432.379 432.379-432.379c238.864 0 432.379 193.515 432.379 432.379s-193.515 432.379-432.379 432.379v0zM471.667 297.326v-27.167c0-21.734-17.554-39.288-39.288-39.288s-39.288 17.554-39.288 39.288v27.167c-22.988 6.896-44.095 19.644-60.604 37.407-14.838 15.673-14.002 40.542 1.672 55.38s40.542 14.002 55.38-1.672c11.285-11.912 26.331-18.39 42.841-18.39 32.392 0 58.723 26.331 58.723 58.723s-26.331 58.723-58.723 58.723v0c-75.651 0-137.091 61.44-137.091 137.091 0 62.067 41.378 114.521 98.011 131.448v27.167c0 21.734 17.554 39.288 39.288 39.288s39.288-17.554 39.288-39.288v-27.167c22.988-6.896 44.095-19.644 60.604-37.407 14.838-15.673 14.002-40.542-1.672-55.38s-40.542-14.002-55.38 1.672c-11.285 11.912-26.331 18.39-42.841 18.39-32.392 0-58.723-26.331-58.723-58.723s26.331-58.723 58.723-58.723v0c75.651 0 137.091-61.44 137.091-137.091 0-61.858-41.378-114.521-98.011-131.448v0z" />
<glyph unicode="&#xe90d;" glyph-name="icon_leftarrow" d="M362.777-33.401l68.673-29.968 221.269 507.043-220.943 515.566-68.869-29.514 208.18-485.783z" />
<glyph unicode="&#xe90e;" glyph-name="icon_logout" d="M450.519 328.834c0-27.938 22.65-50.587 50.587-50.587s50.587 22.65 50.587 50.587v586.086c0 0 0 41.621-50.587 41.621s-50.587-41.621-50.587-41.621v-586.086zM926.815 384.369c0 138.083-68.502 266.554-183.237 343.666-23.186 15.581-54.617 9.416-70.202-13.77-15.581-23.189-9.423-54.617 13.77-70.205 86.723-58.28 138.498-155.36 138.498-259.691-0.003-172.384-140.248-312.632-312.635-312.632s-312.632 140.248-312.632 312.632c0 104.024 51.542 200.946 137.87 259.269 23.152 15.645 29.236 47.083 13.598 70.239-15.642 23.149-47.087 29.239-70.235 13.598-114.219-77.166-182.407-205.428-182.407-343.106 0-228.172 185.631-413.806 413.806-413.806s413.806 185.635 413.806 413.806v0z" />
<glyph unicode="&#xe90f;" glyph-name="icon_move" d="M848.875 597.316c-10.031-10.031-10.031-26.122 0-36.153l87.353-87.353h-239.7v133.538c0 14.211-11.494 25.704-25.704 25.704h-133.538v239.491l87.353-87.353c5.016-5.016 11.494-7.523 18.181-7.523s13.166 2.508 18.181 7.523c10.031 10.031 10.031 26.122 0 36.153l-131.030 131.030c-4.807 4.807-11.285 7.523-18.181 7.523s-13.375-2.717-18.181-7.523l-131.030-131.030c-10.031-10.031-10.031-26.122 0-36.153s26.122-10.031 36.153 0l87.353 87.353v-239.7h-133.538c-14.211 0-25.704-11.494-25.704-25.704v-133.538h-239.491l87.353 87.353c10.031 10.031 10.031 26.122 0 36.153s-26.122 10.031-36.153 0l-131.030-131.030c-10.031-10.031-10.031-26.122 0-36.153l131.030-131.030c5.016-5.016 11.494-7.523 18.181-7.523s13.166 2.508 18.181 7.523c10.031 10.031 10.031 26.122 0 36.153l-87.353 87.353h239.7v-133.538c0-14.211 11.494-25.704 25.704-25.704h133.538v-239.7l-87.562 87.562c-10.031 10.031-26.122 10.031-36.153 0s-10.031-26.122 0-36.153l131.030-131.030c4.807-4.807 11.285-7.523 18.181-7.523s13.375 2.717 18.181 7.523l131.030 131.030c10.031 10.031 10.031 26.122 0 36.153s-26.122 10.031-36.153 0l-87.353-87.353v239.7h133.538c14.211 0 25.704 11.494 25.704 25.704v133.538h239.7l-87.771-87.353c-10.031-10.031-10.031-26.122 0-36.153 5.016-5.016 11.494-7.523 18.181-7.523s13.166 2.508 18.181 7.523l131.030 131.030c4.807 4.807 7.523 11.285 7.523 18.181s-2.717 13.375-7.523 18.181l-131.030 131.030c-10.24 9.822-26.331 9.822-36.362-0.209v0zM645.329 314.567h-267.076v267.076h267.076v-267.076z" />
<glyph unicode="&#xe910;" glyph-name="icon_municipalities" d="M147.064 656.586v-531.888h147.064v455.574h144.34v-455.574h147.064v455.574h144.34v-455.574h147.064v531.888h95.319c14.535 0 26.335 3.469 35.404 10.407 9.077 6.938 13.617 15.802 13.617 26.594 0 12.337-6.354 22.36-19.064 30.063l-2.723 2.313-462.979 203.505c0 0-12.914 3.585-25.872 3.585s-23.149-3.585-23.149-3.585l-462.979-203.505-2.723-2.313c-14.524-7.708-21.787-17.73-21.787-30.063 0-10.793 4.992-19.657 14.979-26.594s21.332-10.407 34.043-10.407h98.043zM98.043 79.719l-98.043-76.314h1021.277l-95.319 76.314z" />
<glyph unicode="&#xe911;" glyph-name="icon_organizations" d="M414.201 177.436h206.908v-205.794h-206.908v205.794zM85.462-28.357h260.627v244.862c0 21.076 14.908 38.040 33.928 38.040h273.735c19.020 0 33.928-16.964 33.928-38.040v-244.862h250.345v945.229h-852.562v-945.229zM451.984 427.353h-139.823v138.795h138.795v-138.795h1.028zM451.984 686.952h-139.823v138.795h138.795v-138.795h1.028zM721.863 427.353h-139.823v138.795h138.795v-138.795h1.028zM721.863 686.952h-139.823v138.795h138.795v-138.795h1.028z" />
<glyph unicode="&#xe912;" glyph-name="icon_pay" d="M0 960h1024v-1024h-1024v1024zM533.591 733.771v46.491h-38.038v-47.9c-18.784-1.409-36.981-5.518-54.591-12.327s-33.342-16.084-47.195-27.824c-13.853-11.74-24.889-25.945-33.107-42.617s-12.327-35.572-12.327-56.705c0-22.541 3.757-41.677 11.27-57.409s17.962-29.233 31.346-40.503c13.384-11.271 28.998-20.545 46.843-27.824s37.099-13.736 57.761-19.371v-156.378c-17.845 0.47-36.394 5.518-55.648 15.145s-35.22 21.954-47.9 36.981l-61.988-59.17c22.541-21.602 48.017-37.686 76.428-48.252s58.113-16.319 89.107-17.258v-50.717h38.038v50.717c19.723 0.47 38.625 3.992 56.705 10.566s34.046 16.084 47.9 28.528c13.853 12.445 24.889 27.941 33.107 46.491s12.327 40.034 12.327 64.453c0 23.95-4.461 44.143-13.384 60.579s-20.545 30.407-34.868 41.912c-14.323 11.505-30.407 21.015-48.252 28.528s-35.69 14.088-53.535 19.723v142.29c16.436 0 32.755-3.17 48.956-9.509s29.702-15.614 40.503-27.824l57.057 59.17c-19.254 16.436-42.029 28.763-68.327 36.981s-52.361 12.562-78.189 13.031zM495.553 661.921v-132.428c-17.845 5.166-32.755 12.797-44.73 22.893s-17.962 25.006-17.962 44.73c0 20.663 6.34 36.159 19.019 46.491s27.237 16.436 43.673 18.315zM533.591 291.404v145.107c18.784-6.574 34.398-15.145 46.843-25.711s18.667-26.18 18.667-46.843c0-21.132-5.987-38.273-17.962-51.422s-27.824-20.193-47.547-21.132z" />
<glyph unicode="&#xe913;" glyph-name="icon_pdf" d="M305.289 446.088c0 27.008-17.214 43.127-47.591 43.127-12.392 0-20.787-1.302-25.189-2.608v-86.725c5.205-1.287 11.603-1.728 20.378-1.728 32.41 0 52.403 17.862 52.403 47.934v0zM493.31 488.345c-13.613 0-22.392-1.306-27.61-2.613v-192.15c5.208-1.327 13.608-1.327 21.21-1.327 55.184-0.421 91.181 32.678 91.181 102.835 0.404 61.025-32.4 93.255-84.781 93.255v0zM853.578 601.242h-22.106v116.204c0 0.725-0.105 1.455-0.194 2.189-0.035 4.614-1.382 9.147-4.282 12.737l-177.496 220.901c-0.053 0.056-0.105 0.076-0.142 0.138-1.058 1.287-2.291 2.358-3.595 3.285-0.386 0.282-0.776 0.519-1.18 0.763-1.13 0.672-2.328 1.229-3.562 1.632-0.334 0.102-0.635 0.251-0.969 0.346-1.34 0.346-2.733 0.563-4.143 0.563h-436.22c-19.92 0-36.102-17.65-36.102-39.334v-319.415h-22.101c-28.495 0-51.601-25.162-51.601-56.218v-292.341c0-31.034 23.105-56.212 51.601-56.212h22.102v-200.117c0-21.682 16.182-39.334 36.102-39.334h595.682c19.901 0 36.102 17.65 36.102 39.334v200.117h22.106c28.487 0 51.597 25.178 51.597 56.212v292.332c-0.002 31.054-23.112 56.218-51.599 56.218v0zM199.689 920.659h418.169v-201.236c0-10.865 8.091-19.666 18.051-19.666h159.462v-98.527h-595.682v319.429zM642.872 397.291c0-56.223-18.791-94.989-44.827-118.967-28.365-25.706-71.569-37.901-124.344-37.901-31.589 0-53.981 2.18-69.197 4.35v288.464c22.395 3.913 51.609 6.093 82.406 6.093 51.164 0 84.368-10.030 110.377-31.367 27.984-22.661 45.585-58.82 45.585-110.672v0zM172.111 243.466v289.772c18.788 3.467 45.198 6.093 82.393 6.093 37.591 0 64.393-7.845 82.384-23.541 17.202-14.806 28.773-39.212 28.773-67.972 0-28.769-8.775-53.168-24.785-69.714-20.795-21.356-51.587-30.949-87.592-30.949-7.986 0-15.21 0.442-20.784 1.317v-105.013l-60.389 0.007zM795.372 7.011h-595.683v189.47h595.682v-189.47h0.002zM847.682 482.685h-103.607v-67.103h96.795v-54.034h-96.795v-118.084h-61.161v293.687h164.768v-54.466z" />
<glyph unicode="&#xe914;" glyph-name="icon_phone" d="M972.853 115.657c-0.245 0-0.245-0.245 0 0-9.573-10.309-19.391-19.636-29.945-29.945-15.954-15.218-32.154-31.173-47.372-49.091-24.791-26.509-54-39.027-92.29-39.027-3.682 0-7.609 0-11.291 0.245-72.9 4.664-140.645 33.136-191.453 57.436-138.927 67.254-260.917 162.735-362.289 283.744-83.7 100.881-139.663 194.153-176.726 294.298-22.827 61.118-31.173 108.736-27.491 153.654 2.455 28.718 13.5 52.527 33.873 72.9l83.7 83.7c12.027 11.291 24.791 17.427 37.309 17.427 15.464 0 27.982-9.327 35.836-17.182 0.245-0.245 0.491-0.491 0.736-0.736 14.973-13.991 29.209-28.473 44.182-43.936 7.609-7.855 15.464-15.709 23.318-23.809l67.009-67.009c26.018-26.018 26.018-50.072 0-76.090-7.118-7.118-13.991-14.236-21.109-21.109-20.618-21.109-40.254-40.745-61.609-59.891-0.491-0.491-0.982-0.736-1.227-1.227-21.109-21.109-17.182-41.727-12.764-55.718 0.245-0.736 0.491-1.473 0.736-2.209 17.427-42.218 41.972-81.981 79.281-129.354l0.245-0.245c67.745-83.454 139.172-148.499 217.962-198.326 10.064-6.382 20.373-11.536 30.191-16.445 8.836-4.418 17.182-8.591 24.3-13.009 0.982-0.491 1.964-1.227 2.945-1.718 8.345-4.173 16.2-6.136 24.3-6.136 20.373 0 33.136 12.764 37.309 16.936l83.945 83.945c8.345 8.345 21.6 18.409 37.063 18.409 15.218 0 27.736-9.573 35.345-17.918 0.245-0.245 0.245-0.245 0.491-0.491l135.245-135.245c25.282-25.036 25.282-50.809 0.245-76.827v0z" />
<glyph unicode="&#xe915;" glyph-name="icon_print" d="M319.496 193.252h319.459v-64h-319.459v64zM255.604 896.101h511.147v-127.791h63.886v127.791c0.002 35.254-28.575 63.899-63.886 63.899h-511.147c-35.288 0-63.899-28.645-63.899-63.899v-127.791h63.899v127.791zM319.496 321.039h383.345v-64h-383.345v64zM958.435 704.413h-894.521c-35.288 0-63.899-28.636-63.899-63.893v-383.381c0-35.311 28.611-63.886 63.899-63.886h127.791v-191.694c0-35.322 28.611-63.897 63.899-63.897h511.147c35.311 0 63.886 28.575 63.886 63.897v191.694h127.796c35.313 0 63.888 28.575 63.888 63.886v383.381c0.002 35.256-28.573 63.893-63.886 63.893v0zM766.751 1.557h-511.147v383.381h511.147v-383.381zM894.527 512.723c-35.313 0-63.888 28.579-63.888 63.899 0 35.252 28.575 63.899 63.888 63.899 35.324 0 63.907-28.645 63.907-63.899 0-35.317-28.586-63.899-63.907-63.899v0z" />
<glyph unicode="&#xe916;" glyph-name="icon_property" d="M136.806 18.317c0 0-0.894-22.589 21.076-22.589 27.331 0 253.617 0.299 253.617 0.299l0.372 208.72c0 0-3.575 34.406 29.677 34.406h105.23c39.322 0 36.901-34.406 36.901-34.406l-0.447-208.047h248.255c27.89 0 26.624 28.123 26.624 28.123v384.791l-349.873 312.575-371.433-312.575c0 0 0-391.298 0-391.298v0zM0 438.711c0 0 31.539-58.379 100.315 0l411.015 349.225 385.359-347.056c79.611-57.668 109.438 0 109.438 0l-494.797 450.163-511.33-452.332zM887.343 788.759h-99.123l0.41-120.722 98.714-84.109z" />
<glyph unicode="&#xe917;" glyph-name="icon_registrationactivity" d="M569.702 69.825c-7.646-10.809-18.842-18.66-31.607-22.187l-63.488-17.34c-4.983-1.411-10.126-2.139-15.314-2.139-11.696 0-23.006 3.573-32.54 10.286-13.995 9.739-22.778 25.099-24.166 41.734l-5.575 65.559c-1.32 13.449 2.298 26.92 9.944 37.751l2.344 3.368h-226.463c-18.273 0-33.087 15.064-33.087 33.291 0 18.295 14.814 33.36 33.087 33.36h274.113l61.258 87.495h-335.371c-18.273 0-33.087 15.064-33.087 33.337s14.814 33.337 33.087 33.337l382.544 0.978 143.451 205.687v152.303c0 25.031-19.365 45.238-44.328 45.238h-109.818v-86.903c0-41.028-33.542-73.478-74.502-73.478h-220.865c-41.051 0-73.432 32.472-73.432 73.478v86.903h-111.002c-25.008 0-45.238-20.23-45.238-45.238v-777.17c0-25.031 20.252-46.353 45.238-46.353h589.574c25.031 0 44.351 21.345 44.351 46.353v277.891l-139.105-197.541zM182.835 561.869h373.737c18.227 0 33.064-15.041 33.064-33.314s-14.837-33.337-33.064-33.337h-373.737c-18.273 0-33.087 15.064-33.087 33.337s14.814 33.314 33.087 33.314zM259.931 695.216h220.661c16.703 0 30.288 13.562 30.288 30.31v126.908c0 16.748-13.585 30.31-30.288 30.31h-33.246c-0.228 42.667-34.907 77.255-77.665 77.255-42.78 0-77.414-34.566-77.665-77.255h-32.085c-16.748 0-30.288-13.562-30.288-30.31v-126.885c0-16.748 13.54-30.333 30.288-30.333zM369.703 916.969c19.001 0 34.406-15.292 34.611-34.247h-69.291c0.228 18.955 15.656 34.247 34.679 34.247zM987.972 755.701c-1.024 5.643-4.233 10.581-8.92 13.858l-55.25 38.502c-3.732 2.617-8.033 3.868-12.265 3.868-6.736 0-13.449-3.186-17.567-9.17l-391.373-561.22 90.408-63.056 391.418 561.198c3.231 4.665 4.528 10.422 3.55 16.020zM440.951 149.902l5.666-65.9c0.273-3.8 2.298-7.191 5.37-9.375 2.185-1.502 4.756-2.367 7.305-2.367 1.115 0 2.253 0.159 3.345 0.478l63.829 17.476c2.89 0.796 5.393 2.571 7.122 5.006l23.962 34.361-90.476 63.078-23.962-34.361c-1.684-2.435-2.48-5.416-2.162-8.397z" />
<glyph unicode="&#xe918;" glyph-name="icon_remove_cancel" d="M506.565 939.673c-268.112 0-486.238-218.126-486.238-486.238s218.126-486.238 486.238-486.238c268.112 0 486.238 218.126 486.238 486.238s-218.132 486.238-486.238 486.238v0zM506.565 50.553c-222.145 0-402.882 180.737-402.882 402.882s180.737 402.882 402.882 402.882c222.145 0 402.882-180.737 402.882-402.882s-180.743-402.882-402.882-402.882v0zM697.406 661.085c-16.28 16.28-42.68 16.28-58.932 0l-129.211-129.228-129.211 129.228c-16.28 16.28-42.652 16.28-58.932 0s-16.28-42.652 0-58.932l129.211-129.223-129.217-129.228c-16.28-16.28-16.28-42.652 0-58.932 8.137-8.137 18.803-12.212 29.469-12.212s21.343 4.069 29.469 12.212l129.211 129.223 129.211-129.223c8.137-8.137 18.803-12.212 29.469-12.212s21.326 4.069 29.469 12.212c16.28 16.28 16.28 42.652 0 58.932l-129.217 129.223 129.211 129.223c16.28 16.28 16.28 42.657 0 58.938v0z" />
<glyph unicode="&#xe919;" glyph-name="icon_renewal" d="M992.79 875.519c20.035-4.298 32.798-24.018 28.512-44.050l-45.504-212.327c-2.063-9.62-7.863-18.028-16.126-23.374-5.165-3.342-11.030-5.316-17.046-5.823-3.612-0.303-7.275-0.080-10.881 0.695l-212.327 45.501c-20.035 4.292-32.798 24.018-28.506 44.053 4.289 20.035 24.009 32.801 44.050 28.506l123.693-26.508c-72.452 124.78-206.272 203.147-352.983 203.147-225.037 0-408.116-183.079-408.116-408.116 0-20.489-16.613-37.101-37.101-37.101-20.492 0-37.101 16.613-37.101 37.101 0 265.955 216.367 482.319 482.319 482.319 172.694 0 330.259-91.899 416.103-238.346l26.962 125.821c4.292 20.035 24.009 32.804 44.053 28.503zM955.457 525.851c20.474 0.727 37.633-15.381 38.307-35.855 4.253-128.763-41.889-251.474-129.932-345.527s-207.442-148.192-336.201-152.448c-5.354-0.178-10.718-0.264-16.052-0.264-166.045-0.006-319.096 85.238-407.024 223.692l-31.607-117.885c-4.443-16.571-19.435-27.506-35.813-27.506-3.182 0-6.411 0.416-9.632 1.279-19.791 5.31-31.533 25.653-26.226 45.445l56.231 209.745c2.55 9.504 8.768 17.61 17.292 22.525 8.518 4.915 18.649 6.245 28.153 3.701l209.739-56.234c19.791-5.313 31.533-25.656 26.226-45.448-5.307-19.794-25.653-31.533-45.445-26.229l-128.956 34.579c73.96-119.624 204.919-193.456 347.080-193.462 4.523 0 9.041 0.074 13.582 0.223 108.951 3.597 209.979 49.413 284.476 128.994 74.5 79.59 113.542 183.418 109.945 292.371-0.677 20.477 15.381 37.627 35.858 38.304z" />
<glyph unicode="&#xe91a;" glyph-name="icon_report" d="M69.388 222.55v-165.901c0-10.093 8.2-18.503 18.503-18.503h128.263c10.093 0 18.503 8.2 18.503 18.503v291.851l-93.148-93.148c-19.765-19.555-44.997-30.909-72.122-32.802v0zM298.579 350.602v-293.953c0-10.093 8.2-18.503 18.503-18.503h128.263c10.093 0 18.503 8.2 18.503 18.503v173.050c-29.227 0.631-56.562 12.195-77.168 32.802l-88.102 88.102zM527.77 247.992v-191.343c0-10.093 8.2-18.503 18.503-18.503h128.263c10.093 0 18.503 8.2 18.503 18.503v353.038l-146.977-146.977c-5.677-5.677-11.775-10.513-18.293-14.719v0zM909.825 626.683l-152.864-152.864v-417.17c0-10.093 8.2-18.503 18.503-18.503h128.263c10.093 0 18.503 8.2 18.503 18.503v558.469c-4.205 3.575-7.359 6.729-9.672 8.831l-2.733 2.733zM1014.748 897.507c-6.098 6.518-15.349 9.883-27.124 9.883h-3.364c-59.716-2.733-119.221-5.677-178.937-8.411-7.99-0.421-18.924-0.841-27.545-9.462-2.733-2.733-4.836-5.887-6.518-9.672-8.831-19.134 3.575-31.54 9.462-37.428l14.929-15.139c10.303-10.513 20.816-21.027 31.33-31.33l-360.818-361.028-162.116 162.116c-9.672 9.672-22.709 15.139-36.586 15.139s-26.704-5.467-36.376-15.139l-215.944-215.734c-20.186-20.186-20.186-52.777 0-72.963l9.672-9.672c9.672-9.672 22.709-15.139 36.586-15.139s26.704 5.467 36.376 15.139l169.685 169.685 162.116-162.116c9.672-9.672 22.709-15.139 36.586-15.139s26.704 5.467 36.586 15.139l407.077 407.077 46.048-45.838c5.467-5.467 13.037-13.037 24.601-13.037 4.836 0 9.672 1.262 14.719 3.995 3.364 1.892 6.308 3.995 8.831 6.518 9.041 9.041 10.724 20.606 11.144 29.648 1.682 38.689 3.575 77.378 5.467 116.278l2.733 58.244c0.631 12.195-2.103 21.657-8.621 28.386v0z" />
<glyph unicode="&#xe91b;" glyph-name="icon_reset" d="M627.293 960l396.707-79.341-120.252-120.252c69.709-86.916 112.814-196.016 112.814-316.126 0-280.71-227.531-508.281-508.281-508.281s-508.281 227.571-508.281 508.281c0 210.374 127.759 391.371 309.927 468.61v-122.731c-120.044-68.908-200.833-197.511-200.833-345.879 0-220.648 178.578-399.186 399.186-399.186s399.186 178.538 399.186 399.186c0 90.24-30.089 172.439-80.581 239.264l-120.252-120.252-79.341 396.707z" />
<glyph unicode="&#xe91c;" glyph-name="icon_review" d="M909.259 807.675h-405.642c-32.852 0-59.388-26.595-59.388-59.334 0-32.808 26.54-59.388 59.388-59.388h405.642c32.852 0 59.385 26.58 59.385 59.388 0.007 32.739-26.533 59.334-59.385 59.334v0zM909.259 443.446h-405.642c-32.852 0-59.388-26.591-59.388-59.385 0-32.757 26.54-59.396 59.388-59.396h405.642c32.852 0 59.385 26.653 59.385 59.396 0.007 32.793-26.533 59.385-59.385 59.385v0zM52.251 793.72c-25.048-21.134-28.273-58.597-7.135-83.688l86.622-102.654c11.318-13.432 27.917-21.079 45.376-21.079 1.445 0 2.876 0.058 4.368 0.171 18.951 1.376 36.127 11.83 46.127 28.029l155.83 252.285c17.234 27.917 8.624 64.454-19.289 81.673-27.917 17.346-64.454 8.624-81.691-19.293l-112.807-182.552-33.774 39.987c-21.145 25.092-58.531 28.313-83.627 7.121v0zM194.463 473.077c-49.217 0-89.092-39.863-89.092-89.026 0-49.177 39.871-89.037 89.092-89.037 49.177 0 89.037 39.86 89.037 89.037 0 49.17-39.86 89.026-89.037 89.026v0zM909.259 87.207h-405.642c-32.852 0-59.388-26.54-59.388-59.399 0-32.743 26.54-59.334 59.388-59.334h405.642c32.852 0 59.385 26.591 59.385 59.334 0.007 32.862-26.533 59.399-59.385 59.399v0zM194.463 116.838c-49.217 0-89.092-39.86-89.092-89.037 0-49.163 39.871-89.041 89.092-89.041 49.177 0 89.037 39.867 89.037 89.041 0 49.177-39.86 89.037-89.037 89.037v0z" />
<glyph unicode="&#xe91d;" glyph-name="icon_search" d="M1015.031-11.778l-248.848 248.848c66.753 76.743 107.168 176.873 107.168 286.311 0 240.901-195.945 436.619-436.619 436.619-240.901 0-436.619-195.945-436.619-436.619s195.945-436.619 436.619-436.619c109.439 0 209.568 40.415 286.311 107.168l248.848-248.848c5.903-5.903 13.85-9.082 21.57-9.082s15.667 2.952 21.57 9.082c11.807 11.807 11.807 31.333 0 43.14v0zM61.19 523.381c0 207.071 168.472 375.315 375.315 375.315 207.071 0 375.315-168.472 375.315-375.315s-168.245-375.542-375.315-375.542c-206.843 0-375.315 168.472-375.315 375.542v0z" />
<glyph unicode="&#xe91e;" glyph-name="icon_settings" d="M970.983 555.742c30.57-5.131 52.803-31.425 52.376-62.423v-90.001c0-30.998-22.233-57.293-52.803-62.423l-71.83-11.972c-7.268-23.943-17.102-47.245-28.86-69.692l42.328-59.43c17.957-25.226 14.965-59.644-6.841-81.45l-63.706-63.706c-11.972-11.972-27.791-18.599-44.68-18.599-13.254 0-26.081 4.062-36.77 11.758l-59.217 42.328c-22.233-11.758-45.535-21.378-69.692-28.86l-12.185-71.83c-5.131-30.57-31.425-52.803-62.423-52.803h-90.215c-30.998 0-57.293 22.233-62.423 52.803l-11.972 71.83c-23.302 7.268-45.962 16.461-67.554 27.791l-60.072-42.756c-10.689-7.696-23.302-11.758-36.556-11.758-16.889 0-32.708 6.627-44.68 18.599l-63.706 63.706c-22.019 21.805-24.798 56.224-6.841 81.45l42.114 58.575c-11.972 22.233-21.805 45.535-29.288 69.478l-72.685 12.399c-30.57 5.131-52.803 31.425-52.803 62.423v90.001c0 30.998 22.233 57.293 52.803 62.423l70.975 11.972c7.268 24.157 16.675 47.459 28.433 69.906l-42.756 60.072c-17.957 25.226-14.965 59.644 6.841 81.45l63.92 63.706c11.758 11.972 27.791 18.599 44.68 18.599 13.254 0 26.081-4.062 36.77-11.758l58.789-42.328c22.233 11.972 45.535 21.805 69.478 29.288l12.399 72.685c5.131 30.57 31.425 52.803 62.423 52.803h90.001c30.998 0 57.293-22.233 62.423-52.803l11.972-70.975c25.012-7.482 49.169-17.53 72.257-29.715l59.43 42.328c10.689 7.696 23.302 11.758 36.556 11.758 16.889 0 32.708-6.627 44.68-18.599l63.706-63.706c22.019-21.805 24.798-56.224 6.841-81.45l-42.328-59.217c11.758-22.233 21.378-45.535 28.86-69.692l71.83-12.185zM936.7 490.382c0 2.598-1.799 4.797-4.397 5.196l-83.941 14.19c-10.393 1.599-18.987 9.393-21.585 19.786-7.595 29.379-19.186 57.559-34.775 83.741-5.396 9.194-4.996 20.785 1.199 29.379l49.365 69.351c1.399 2.198 1.199 4.996-0.6 6.795l-59.558 59.558c-1.399 1.399-2.998 1.599-3.797 1.599-0.999 0-1.999-0.4-2.998-0.999l-68.951-49.565c-8.794-6.196-20.186-6.595-29.379-1.199-26.781 15.789-55.561 27.581-85.739 35.175-10.393 2.598-18.187 11.192-19.986 21.785l-13.99 83.341c-0.4 2.598-2.598 4.397-5.196 4.397h-84.141c-2.598 0-4.797-1.799-5.196-4.397l-14.39-84.54c-1.799-10.393-9.593-18.787-19.786-21.585-29.379-7.595-57.559-19.586-83.541-35.175-9.194-5.396-20.785-4.996-29.579 1.199l-68.951 49.165c-0.799 0.6-1.799 0.999-2.998 0.999-0.999 0-2.398-0.2-3.797-1.599l-59.558-59.558c-1.799-1.799-1.999-4.797-0.6-6.795l49.765-69.951c6.196-8.594 6.795-19.986 1.399-29.179-15.389-26.182-26.781-54.561-34.176-83.941-2.598-10.393-11.192-18.187-21.785-19.986l-83.341-13.99c-2.598-0.4-4.397-2.598-4.397-5.196v-84.141c0-2.598 1.799-4.797 4.397-5.196l84.54-14.39c10.393-1.799 18.787-9.593 21.585-19.786 7.595-29.379 19.586-57.559 35.175-83.541 5.396-9.194 4.996-20.785-1.199-29.579l-49.165-68.951c-1.399-2.198-1.199-4.996 0.6-6.795l59.558-59.558c1.399-1.399 2.998-1.599 3.797-1.599 0.999 0 1.999 0.4 2.998 0.999l69.951 49.765c4.597 3.398 10.193 4.996 15.589 4.996 4.597 0 9.393-1.199 13.59-3.597 25.782-14.79 53.362-26.182 81.942-33.576 10.193-2.598 17.987-10.992 19.786-21.585l13.99-83.941c0.4-2.598 2.598-4.397 5.196-4.397h84.141c2.598 0 4.797 1.799 5.196 4.397l14.19 83.941c1.599 10.393 9.393 18.987 19.786 21.585 29.379 7.595 57.559 19.186 83.741 34.775 9.194 5.396 20.785 4.996 29.379-1.199l69.351-49.365c0.799-0.6 1.799-0.999 2.998-0.999 0.999 0 2.398 0.2 3.797 1.599l59.558 59.558c1.799 1.799 1.999 4.797 0.6 6.795l-49.365 69.551c-6.196 8.794-6.595 20.186-1.199 29.379 15.589 26.182 27.181 54.362 34.775 83.741 2.598 10.193 10.992 17.987 21.585 19.786l83.941 13.99c2.598 0.4 4.397 2.598 4.397 5.196l0.2 84.141zM511.786 681.074c128.379 0 232.649-104.269 232.649-232.649s-104.269-232.649-232.649-232.649c-128.379 0-232.649 104.269-232.649 232.649s104.269 232.649 232.649 232.649zM511.786 289.929c87.453 0 158.496 71.043 158.496 158.496s-71.043 158.496-158.496 158.496c-87.453 0-158.496-71.043-158.496-158.496s71.043-158.496 158.496-158.496z" />
<glyph unicode="&#xe91f;" glyph-name="icon_single_user" d="M512 960c116.053 0 204.8-88.747 204.8-204.8s-88.747-204.8-204.8-204.8c-116.053 0-204.8 88.747-204.8 204.8s88.747 204.8 204.8 204.8v0zM512-9.387c-170.667 0-320.853 88.744-409.6 218.453 0 136.533 273.067 211.627 409.6 211.627s409.6-75.093 409.6-211.627c-88.747-129.707-238.933-218.453-409.6-218.453v0z" />
<glyph unicode="&#xe920;" glyph-name="icon_update" d="M412.482 848.418c227.219 80.595 477.636-38.683 558.212-265.893 39.028-110.069 32.871-228.781-17.336-334.204-50.231-105.439-138.536-185-248.634-224.004-47.223-16.773-96.615-25.216-146.22-25.216-121.272 0-155.849 7.114-222.071 47.262-20.623 12.503-25.241 50.884-9.312 69.445 15.184 17.693 45.554 20.451 64.324 6.461 66.058-49.236 166.411-60.813 285.196-18.723 183.493 65.092 279.846 267.368 214.757 450.853-65.092 183.507-267.318 279.847-450.835 214.773-83.893-29.772-151.871-88.413-193.072-165.615l135.002 47.889c21.846 7.766 45.927-3.698 53.684-25.56 7.779-21.887-3.676-45.942-25.566-53.701l-224.637-79.676c-4.515-1.609-9.27-2.423-14.062-2.423-6.245 0-12.421 1.386-18.101 4.090-10.049 4.814-17.795 13.411-21.515 23.897l-75.461 212.803c-7.776 21.9 3.674 45.938 25.572 53.7 21.895 7.754 45.913-3.693 53.675-25.57l39.614-111.708c51.278 93.741 134.552 164.853 236.788 201.122zM96 342.4c-22.975 0-41.6 18.625-41.6 41.6s18.625 41.6 41.6 41.6h256c22.975 0 41.6-18.625 41.6-41.6s-18.625-41.6-41.6-41.6h-256zM96 195.2c-22.975 0-41.6 18.625-41.6 41.6s18.625 41.6 41.6 41.6h448c22.975 0 41.6-18.625 41.6-41.6s-18.625-41.6-41.6-41.6h-448zM480 342.4c-22.975 0-41.6 18.625-41.6 41.6s18.625 41.6 41.6 41.6h64c22.975 0 41.6-18.625 41.6-41.6s-18.625-41.6-41.6-41.6h-64z" />
<glyph unicode="&#xe921;" glyph-name="icon_users" d="M611.303 732.482c46.839-29.367 79.682-79.063 85.662-136.748 19.102-8.925 40.303-14.058 62.78-14.058 82.059 0 148.568 66.509 148.568 148.556 0 82.059-66.509 148.568-148.568 148.568-81.275-0.025-147.203-65.346-148.442-146.318v0zM513.972 428.291c82.059 0 148.568 66.522 148.568 148.568s-66.522 148.556-148.568 148.556c-82.046 0-148.594-66.522-148.594-148.568s66.547-148.556 148.594-148.556v0zM576.992 418.165h-126.066c-104.89 0-190.224-85.346-190.224-190.236v-154.169l0.392-2.415 10.619-3.325c100.099-31.276 187.063-41.706 258.642-41.706 139.808 0 220.843 39.86 225.836 42.401l9.924 5.019h1.062v154.194c0.038 104.89-85.295 190.236-190.186 190.236v0zM822.79 571.537h-125.092c-1.353-50.050-22.718-95.118-56.51-127.532 93.235-27.724 161.451-114.182 161.451-216.304v-47.509c123.512 4.526 194.686 39.531 199.377 41.883l9.924 5.032h1.062v154.219c0 104.878-85.333 190.211-190.211 190.211v0zM253.282 581.651c29.064 0 56.105 8.483 79.012 22.933 7.282 47.496 32.743 89 69.114 117.267 0.152 2.781 0.417 5.537 0.417 8.344 0 82.059-66.522 148.568-148.543 148.568-82.072 0-148.568-66.509-148.568-148.568 0-82.021 66.497-148.543 148.568-148.543v0zM386.705 444.005c-33.628 32.25-54.917 77.078-56.472 126.824-4.64 0.341-9.229 0.708-13.957 0.708h-126.053c-104.89 0-190.224-85.333-190.224-190.211v-154.194l0.392-2.377 10.619-3.35c80.302-25.069 151.969-36.624 214.218-40.265v46.56c0.025 102.122 68.216 188.555 161.476 216.304v0z" />
<glyph unicode="&#xe922;" glyph-name="icon_xls" d="M869.337 593.852h-22.561v118.598c0 0.74-0.107 1.485-0.189 2.239-0.036 4.704-1.421 9.331-4.381 12.994l-181.161 225.451c-0.055 0.058-0.107 0.078-0.145 0.141-1.080 1.314-2.339 2.407-3.669 3.353-0.394 0.288-0.791 0.53-1.204 0.784-1.153 0.68-2.376 1.254-3.635 1.665-0.341 0.098-0.648 0.251-0.989 0.349-1.368 0.351-2.789 0.572-4.229 0.572h-445.205c-20.33 0-36.846-18.014-36.846-40.144v-325.994h-22.556c-29.082 0-52.664-25.68-52.664-57.376v-298.363c0-31.664 23.581-57.37 52.664-57.37h22.558v-204.239c0-22.128 16.516-40.144 36.846-40.144h607.952c20.311 0 36.846 18.014 36.846 40.144v204.239h22.561c29.074 0 52.66 25.697 52.66 57.37v298.354c-0.002 31.705-23.571 57.376-52.652 57.376v0zM201.968 919.856h426.783v-205.376c0-11.089 8.258-20.071 18.423-20.071h162.747v-100.556h-607.952v326.004zM615.393 301.473v-58.214h-175.789v306.576h63.9v-248.362h111.889zM162.82 243.269l81.418 155.102-78.5 151.465h73.065l24.63-55.937c8.357-18.64 14.622-33.667 21.306-50.947h0.824c6.697 19.568 12.113 33.214 19.206 50.947l23.803 55.937h72.647l-79.336-149.651 83.518-156.923h-73.488l-25.466 55.489c-10.431 21.385-17.12 37.299-25.048 55.038h-0.836c-5.853-17.748-12.935-33.673-21.701-55.038l-23.388-55.489-72.654 0.007zM809.922-12.62h-607.954v193.372h607.952v-193.372h0.002zM721.837 238.693c-32.132 0-63.876 9.114-79.726 18.659l12.927 57.312c17.126-9.545 43.43-19.11 70.578-19.11 29.236 0 44.672 13.193 44.672 33.205 0 19.11-13.358 30.027-47.181 43.22-46.758 17.748-77.243 45.944-77.243 90.539 0 52.315 40.083 92.335 106.489 92.335 31.718 0 55.106-7.298 71.803-15.466l-14.196-55.956c-11.27 5.921-31.32 14.559-58.866 14.559-27.552 0-40.911-13.637-40.911-29.573 0-19.56 15.849-28.211 52.183-43.224 49.682-20.014 73.070-48.2 73.070-91.418-0.022-51.412-36.336-95.081-113.599-95.081v0z" />
<glyph unicode="&#xe923;" glyph-name="icon_confirm" d="M511.349 960c-282.24 0-510.72-228.757-510.72-511.349s228.48-511.349 510.72-511.349c282.24 0 510.72 228.757 510.72 511.349s-228.48 511.349-510.72 511.349v0zM511.349 27.019c-232.96 0-421.12 188.395-421.12 421.643s188.16 421.632 421.12 421.632c232.96 0 421.12-188.395 421.12-421.643s-188.16-421.632-421.12-421.632v0zM681.589 614.613l-237.44-237.728-112 112.139c-17.92 17.941-44.8 17.941-62.72 0s-17.92-44.853 0-62.795l143.36-143.541c8.96-8.971 22.4-13.461 31.36-13.461s22.4 4.491 31.36 13.461l268.8 269.131c17.92 17.941 17.92 44.853 0 62.795s-44.8 17.941-62.72 0v0z" />
<glyph unicode="&#xe924;" glyph-name="icon_view" horiz-adv-x="1676" d="M1653.386 508.542c0 0-453.334 450.624-816.199 450.624s-816.202-450.624-816.202-450.624c-27.857-26.13-28.102-69.023 0-94.657 0 0 453.337-450.627 816.202-450.627s816.199 450.627 816.199 450.627c27.609 26.127 28.102 68.772 0 94.657v0zM840.638 98.346c-199.43 0-361.386 161.715-361.386 361.386s161.712 361.386 361.386 361.386c199.675 0 361.383-161.957 361.383-361.386s-161.957-361.386-361.383-361.386v0zM836.445 693.426c-126.707 0-229.504-103.287-229.504-230.242 0-126.952 102.797-230.242 229.504-230.242s229.504 103.29 229.504 230.242c0 126.952-102.794 230.242-229.504 230.242v0zM922.973 462.442c-39.194 0-71.24 32.050-71.24 71.737s32.047 71.733 71.24 71.733c39.194 0 71.24-32.047 71.24-71.733s-31.554-71.737-71.24-71.737v0z" />
</font>
</defs>
</svg>
