<?xml version="1.0" encoding="UTF-8"?>
<svg width="15px" height="15px" viewBox="0 0 15 15" version="1.1" xmlns="http://www.w3.org/2000/svg" xmlns:xlink="http://www.w3.org/1999/xlink">
    <!-- Generator: Sketch 45.2 (43514) - http://www.bohemiancoding.com/sketch -->
    <title>icon_password</title>
    <desc>Created with Sketch.</desc>
    <defs></defs>
    <g id="Desktop" stroke="none" stroke-width="1" fill="none" fill-rule="evenodd">
        <g id="Settings" transform="translate(-309.000000, -501.000000)" fill-rule="nonzero" fill="#495E7A">
            <g id="REVIEW-GROUP-4" transform="translate(293.000000, 488.000000)">
                <path d="M30.6362394,25.394913 C30.6290816,25.3016505 30.5873976,25.2119669 30.5190297,25.1450727 L24.6115448,19.2375878 C24.8439643,18.6900653 24.9666476,18.0971221 24.9666476,17.484337 C24.9666476,16.2867664 24.4995456,15.1599848 23.6541305,14.3124645 C22.8075049,13.4666283 21.6815128,13 20.483258,13 C19.2844243,13 18.1603796,13.4667862 17.3123855,14.3131487 C15.5627662,16.0618206 15.5623978,18.9060638 17.3121224,20.6545779 C18.1600638,21.5027298 19.284477,21.9698318 20.4826791,21.9698318 C21.0956221,21.9698318 21.6870917,21.8461484 22.2359299,21.6134132 L24.1766532,23.5556101 C24.2573894,23.6353464 24.3638624,23.6776619 24.4787563,23.6739251 L25.5363805,23.6368201 L25.5018544,24.6970758 C25.4985912,24.8089171 25.5389594,24.9177585 25.6200114,24.9973895 C25.6981162,25.0769679 25.8078522,25.1202307 25.9192199,25.1157045 L26.9807387,25.0794415 L26.9426337,26.1385394 C26.939318,26.250486 26.9823177,26.3595378 27.0604224,26.4391688 C27.1411587,26.5187472 27.2352106,26.5615364 27.3625255,26.5576417 L28.4214128,26.521642 L28.3859394,27.5808977 C28.3797289,27.6983705 28.4292023,27.8113697 28.5132017,27.8915797 C28.5906748,27.9620529 28.6873583,28 28.7892524,28 C28.8038838,28 28.8188837,27.9993684 28.833831,27.9980526 L30.4575564,27.8177381 C30.676976,27.7937909 30.8367643,27.5980028 30.8179223,27.3781096 L30.6362394,25.394913 Z M19.9416302,16.9428671 C19.4428969,17.4410741 18.6365868,17.4410741 18.1389061,16.9428671 C17.6404885,16.4445021 17.6404885,15.6383499 18.1389061,15.1404587 C18.6365868,14.6425674 19.4426337,14.6420937 19.9416302,15.1403008 C20.4393636,15.6381394 20.4390478,16.4448179 19.9416302,16.9428671 Z M29.2501965,25.5301752 C29.1909338,25.589438 29.1115133,25.6190167 29.0343559,25.6190167 C28.9571986,25.6190167 28.8777254,25.5893853 28.8185153,25.5301752 L23.7921822,20.5023684 C23.9321286,20.3514747 24.0593908,20.1926337 24.174969,20.0256349 L29.2501439,25.0998098 C29.3686694,25.2183353 29.3686694,25.4117024 29.2501965,25.5301752 Z" id="icon_password"></path>
            </g>
        </g>
    </g>
</svg>