<?xml version="1.0" encoding="UTF-8"?>
<svg width="7px" height="15px" viewBox="0 0 7 15" version="1.1" xmlns="http://www.w3.org/2000/svg" xmlns:xlink="http://www.w3.org/1999/xlink">
    <!-- Generator: Sketch 45.2 (43514) - http://www.bohemiancoding.com/sketch -->
    <title>icon_financials</title>
    <desc>Created with Sketch.</desc>
    <defs></defs>
    <g id="Desktop" stroke="none" stroke-width="1" fill="none" fill-rule="evenodd">
        <g id="Dashboard-Municipality" transform="translate(-299.000000, -474.000000)" fill="#404040">
            <path d="M303.471918,487.315083 L303.471918,488.003886 C303.471918,488.554928 303.026846,489 302.475804,489 C301.924762,489 301.479689,488.554928 301.479689,488.003886 L301.479689,487.315083 C300.896856,487.140233 300.36171,486.817026 299.94313,486.366655 C299.566937,485.969269 299.588131,485.33875 299.985517,484.962557 C300.382904,484.586365 301.013423,484.607559 301.389615,485.004945 C301.675733,485.306959 302.057224,485.471212 302.475804,485.471212 C303.297068,485.471212 303.964677,484.803603 303.964677,483.982338 C303.964677,483.161074 303.297068,482.493465 302.475804,482.493465 L302.475804,482.493465 C300.557753,482.493465 299,480.935712 299,479.017662 C299,477.444013 300.049099,476.114094 301.484988,475.684917 L301.484988,474.996114 C301.484988,474.445072 301.93006,474 302.481102,474 C303.032144,474 303.477217,474.445072 303.477217,474.996114 L303.477217,475.684917 C304.060049,475.859767 304.595196,476.182974 305.013776,476.633345 C305.389968,477.030731 305.368774,477.66125 304.971388,478.037443 C304.574002,478.413635 303.943483,478.392441 303.567291,477.995055 C303.281173,477.693041 302.899682,477.528788 302.481102,477.528788 C301.659838,477.528788 300.992229,478.196397 300.992229,479.017662 C300.992229,479.838926 301.659838,480.506535 302.481102,480.506535 L302.481102,480.506535 C304.399152,480.506535 305.956906,482.064288 305.956906,483.982338 C305.956906,485.550689 304.907806,486.885906 303.471918,487.315083 L303.471918,487.315083 Z" id="icon_financials"></path>
        </g>
    </g>
</svg>