<?xml version="1.0" encoding="UTF-8"?>
<svg width="16px" height="16px" viewBox="0 0 16 16" version="1.1" xmlns="http://www.w3.org/2000/svg" xmlns:xlink="http://www.w3.org/1999/xlink">
    <!-- Generator: Sketch 45.2 (43514) - http://www.bohemiancoding.com/sketch -->
    <title>icon_download</title>
    <desc>Created with Sketch.</desc>
    <defs></defs>
    <g id="Symbols" stroke="none" stroke-width="1" fill="none" fill-rule="evenodd">
        <g id="PRINT-AND-DOWNLOAD" transform="translate(-37.000000, 0.000000)" fill="#737373">
            <g id="icon_download" transform="translate(37.000000, 0.000000)">
                <g id="Group">
                    <path d="M13.6298523,5.47525517 C13.6825772,5.24077241 13.7113557,4.99685517 13.7113557,4.74587586 C13.7113557,2.96331034 12.3051275,1.51828966 10.5704161,1.51828966 C10.1028188,1.51828966 9.65943624,1.62411034 9.26072483,1.81241379 C8.55055034,0.720496552 7.34040268,0.00110344828 5.96633557,0.00110344828 C3.80681879,0.00110344828 2.05234899,1.77787586 2.00869799,3.9862069 C0.828778523,4.49688276 0,5.69583448 0,7.09423448 C0,8.95641379 1.46904698,10.4667034 3.28134228,10.4667034 L5.38915436,10.4667034 L5.38915436,7.05627586 C5.38915436,6.29572414 5.99130201,5.66670345 6.73143624,5.66670345 L9.22808054,5.66670345 L9.23699329,5.66670345 L9.22808054,5.66670345 C9.96821477,5.66670345 10.5435168,6.29566897 10.5435168,7.05627586 L10.5435168,10.4667034 L13.5392215,10.4667034 C14.8808591,10.4667034 15.9684295,9.34841379 15.9684295,7.96976552 C15.9684295,6.62234483 14.9294497,5.52430345 13.6298523,5.47525517 L13.6298523,5.47525517 Z" id="Shape"></path>
                    <path d="M10.0602953,11.3494621 L9.73814765,11.3494621 L9.73814765,7.05627586 C9.73814765,6.75282759 9.51441611,6.49428966 9.21911409,6.49428966 L6.73143624,6.49428966 C6.43613423,6.49428966 6.19452349,6.75282759 6.19452349,7.05627586 L6.19452349,11.3494621 L5.90808054,11.3494621 C5.72526174,11.3494621 5.55586577,11.3900138 5.40703356,11.4558345 C5.18158389,11.5554759 5.00348993,11.7278345 4.90034899,11.9547586 C4.72912752,12.3315862 4.80311409,12.7719172 5.09825503,13.1341793 L7.02195973,15.4957793 C7.26571812,15.7950897 7.61642953,15.9665103 7.98416107,15.9665103 C8.35189262,15.9665103 8.70260403,15.7948138 8.94636242,15.4955034 L10.8702282,13.1333517 C11.1652617,12.7712 11.2391946,12.334069 11.0679732,11.9572966 C10.9648322,11.7304276 10.7868456,11.5554759 10.561396,11.4558897 C10.4125638,11.3899586 10.2431678,11.3494621 10.0602953,11.3494621 L10.0602953,11.3494621 Z" id="Shape"></path>
                </g>
            </g>
        </g>
    </g>
</svg>