<?xml version="1.0" encoding="UTF-8"?>
<svg width="15px" height="13px" viewBox="0 0 15 13" version="1.1" xmlns="http://www.w3.org/2000/svg" xmlns:xlink="http://www.w3.org/1999/xlink">
    <!-- Generator: Sketch 45.2 (43514) - http://www.bohemiancoding.com/sketch -->
    <title>icon_changelog copy</title>
    <desc>Created with Sketch.</desc>
    <defs></defs>
    <g id="Symbols" stroke="none" stroke-width="1" fill="none" fill-rule="evenodd">
        <g id="Global-change-logs-row" transform="translate(-175.000000, -37.000000)" fill-rule="nonzero" fill="#76C794">
            <g id="Group-3" transform="translate(0.000000, 34.000000)">
                <path d="M181.679062,9.9063336 C181.52197,10.2639459 181.387958,10.5644984 181.276997,10.8082758 C181.166008,11.0519678 181.019674,11.3363273 180.838278,11.6614397 C180.656797,11.9864099 180.483426,12.2571661 180.318309,12.4738793 C180.153134,12.6904501 179.952614,12.9154163 179.717033,13.1481802 C179.481395,13.3811433 179.237674,13.5666941 178.985729,13.7048896 C178.733926,13.8429714 178.445412,13.9567209 178.120413,14.0461382 C177.795358,14.1355554 177.448759,14.1803495 177.080332,14.1803495 L175.260283,14.1803495 C175.184526,14.1803495 175.122173,14.1560173 175.073395,14.1072959 C175.024645,14.0584323 175.000114,13.9961077 175.000114,13.9203222 L175.000114,12.3601298 C175.000114,12.2842019 175.02456,12.2220481 175.073196,12.1733552 C175.121889,12.1244916 175.184213,12.1003301 175.260084,12.1003301 L177.080076,12.1003301 C177.340047,12.1003301 177.575742,12.0596342 177.786934,11.978413 C177.998183,11.8971633 178.185071,11.7752462 178.347599,11.6126046 C178.51007,11.4501338 178.648294,11.2835933 178.762015,11.1129548 C178.875679,10.9423448 178.997653,10.7323764 179.127624,10.4832488 C179.300938,10.1474359 179.512187,9.68424175 179.7614,9.09383715 C179.918464,8.73631026 180.052504,8.43567235 180.163579,8.19189496 C180.274624,7.94817448 180.420902,7.66375804 180.602298,7.33875946 C180.783722,7.01370397 180.957121,6.74289079 181.122296,6.52629148 C181.287413,6.30963525 181.487877,6.08475445 181.723515,5.8519052 C181.959181,5.61894212 182.202902,5.43344819 182.454818,5.29530957 C182.70665,5.15711402 182.995136,5.04342144 183.32022,4.95406106 C183.645304,4.86470068 183.991931,4.81990666 184.360357,4.81990666 L186.440234,4.81990666 L186.440234,3.2599704 C186.440234,3.18412792 186.464595,3.1218887 186.513089,3.07313891 C186.561952,3.02433221 186.624106,3 186.700063,3 C186.764948,3 186.830204,3.02695041 186.895062,3.08107889 L189.486997,5.67304215 C189.535889,5.72201961 189.560221,5.78425883 189.560221,5.86012977 C189.560221,5.93600072 189.535889,5.99821148 189.486997,6.04701818 L186.886866,8.64697834 C186.838372,8.69575659 186.776047,8.72006033 186.700091,8.72006033 C186.62977,8.72006033 186.568811,8.69436211 186.517386,8.64288029 C186.465961,8.59148384 186.440263,8.5304968 186.440263,8.46008993 L186.440263,6.90003984 L184.360386,6.90003984 C184.100245,6.90003984 183.864663,6.94067889 183.653528,7.02192854 C183.442165,7.10309281 183.255391,7.22509534 183.092749,7.38762308 C182.930307,7.55009391 182.792083,7.7166628 182.678447,7.88730128 C182.564698,8.05793976 182.442724,8.26785128 182.312724,8.51697891 C182.139382,8.85282026 181.92819,9.31595746 181.679062,9.9063336 Z M175.25997,6.89995447 C175.184213,6.89995447 175.121889,6.87565072 175.073082,6.82684402 C175.024332,6.77812269 175,6.71596884 175,6.64006944 L175,5.08001935 C175,5.00414841 175.024446,4.94190919 175.073082,4.89321632 C175.121775,4.84440961 175.184099,4.82007741 175.25997,4.82007741 L177.079991,4.82007741 C178.434199,4.82007741 179.54463,5.42954935 180.411312,6.64829401 C180.086285,7.14663465 179.715325,7.88602064 179.298149,8.86645199 C179.178964,8.62273151 179.078761,8.42633789 178.997568,8.27732803 C178.916318,8.12846047 178.80661,7.95642751 178.6685,7.76134299 C178.530361,7.5663723 178.392251,7.41340668 178.254112,7.30230384 C178.116002,7.191201 177.945392,7.09646192 177.742225,7.01785894 C177.539058,6.93925596 177.318361,6.89995447 177.080019,6.89995447 L175.25997,6.89995447 Z M186.895261,10.3615308 L189.486968,12.9532949 C189.53586,13.0019593 189.560192,13.0641985 189.560192,13.1400694 C189.560192,13.2160258 189.53586,13.2781511 189.487167,13.3270432 L186.887036,15.9269749 C186.838543,15.9756678 186.776218,16 186.700262,16 C186.62994,16 186.568982,15.9743018 186.517557,15.9228484 C186.466132,15.8714235 186.440434,15.8104649 186.440434,15.7400581 L186.440434,14.1799795 C186.267063,14.1799795 186.036832,14.1814309 185.749712,14.1840776 C185.462592,14.1866104 185.243175,14.1895132 185.091348,14.1922452 C184.939834,14.194778 184.742103,14.1922452 184.498439,14.1840776 C184.25469,14.1758815 184.062338,14.1622497 183.921524,14.1433531 C183.780682,14.1246558 183.60734,14.0960263 183.401555,14.0582331 C183.195798,14.0202692 183.025359,13.9701818 182.889582,13.9078857 C182.754033,13.8455326 182.597027,13.768381 182.418221,13.6762602 C182.2395,13.5843385 182.079704,13.4758539 181.938862,13.3513754 C181.798048,13.2267262 181.649038,13.0818144 181.492003,12.91664 C181.334911,12.751551 181.183226,12.5632966 181.037034,12.352076 C181.356682,11.8482712 181.724966,11.1088853 182.142029,10.133918 C182.261214,10.3774677 182.361417,10.574089 182.442581,10.7228143 C182.523802,10.8718526 182.633568,11.043914 182.771763,11.2389131 C182.909873,11.4339977 183.048069,11.5870771 183.186065,11.6980946 C183.324147,11.8092259 183.494785,11.903965 183.697952,11.9824826 C183.901119,12.0611425 184.121788,12.1005009 184.360215,12.1005009 L186.440291,12.1005009 L186.440291,10.5403085 C186.440291,10.4645514 186.464624,10.4022268 186.513316,10.3535339 C186.561981,10.3047557 186.624334,10.2805088 186.700091,10.2805088 C186.765148,10.2805088 186.830204,10.3074023 186.895261,10.3615308 Z" id="icon_changelog-copy"></path>
            </g>
        </g>
    </g>
</svg>