<?xml version="1.0" encoding="UTF-8"?>
<svg width="18px" height="11px" viewBox="0 0 18 11" version="1.1" xmlns="http://www.w3.org/2000/svg" xmlns:xlink="http://www.w3.org/1999/xlink">
    <!-- Generator: Sketch 45.2 (43514) - http://www.bohemiancoding.com/sketch -->
    <title>icon_edit</title>
    <desc>Created with Sketch.</desc>
    <defs></defs>
    <g id="Symbols" stroke="none" stroke-width="1" fill="none" fill-rule="evenodd">
        <g id="registration-and-renewal-row" transform="translate(-438.000000, -4.000000)" fill="#495E7A">
            <g id="icon_edit" transform="translate(438.000000, 4.000000)">
                <g id="Capa_1">
                    <g id="Group">
                        <path d="M17.7609905,4.84068462 C17.7609905,4.84068462 12.8911943,8.8817842e-16 8.99322512,8.8817842e-16 C5.09525589,8.8817842e-16 0.225425118,4.84068462 0.225425118,4.84068462 C-0.0738248822,5.12138077 -0.0764556514,5.58214615 0.225425118,5.85751154 C0.225425118,5.85751154 5.09525589,10.6982308 8.99322512,10.6982308 C12.8911943,10.6982308 17.7609905,5.85751154 17.7609905,5.85751154 C18.0575751,5.57685 18.0628713,5.11875 17.7609905,4.84068462 L17.7609905,4.84068462 Z M9.03029819,9.24708462 C6.88798666,9.24708462 5.14821743,7.50991154 5.14821743,5.36500385 C5.14821743,3.22009615 6.88535589,1.48292308 9.03029819,1.48292308 C11.1752405,1.48292308 12.9123443,3.22269231 12.9123443,5.36500385 C12.9123443,7.50731538 11.1725751,9.24708462 9.03029819,9.24708462 L9.03029819,9.24708462 Z" id="Shape"></path>
                        <path d="M9.46537692,3 C8.10426538,3 7,4.10952692 7,5.47330385 C7,6.83704615 8.10426538,7.94660769 9.46537692,7.94660769 C10.8264885,7.94660769 11.9307538,6.83704615 11.9307538,5.47330385 C11.9307538,4.10956154 10.8265231,3 9.46537692,3 L9.46537692,3 Z M10.3948692,5.48126538 C9.97384231,5.48126538 9.62959231,5.13698077 9.62959231,4.71065769 C9.62959231,4.28433462 9.97384231,3.94008462 10.3948692,3.94008462 C10.8158962,3.94008462 11.1601462,4.28433462 11.1601462,4.71065769 C11.1601462,5.13698077 10.8211923,5.48126538 10.3948692,5.48126538 L10.3948692,5.48126538 Z" id="Shape"></path>
                    </g>
                </g>
            </g>
        </g>
    </g>
</svg>