<?xml version="1.0" encoding="UTF-8"?>
<svg width="16px" height="16px" viewBox="0 0 16 16" version="1.1" xmlns="http://www.w3.org/2000/svg" xmlns:xlink="http://www.w3.org/1999/xlink">
    <!-- Generator: Sketch 45.2 (43514) - http://www.bohemiancoding.com/sketch -->
    <title>icon_print</title>
    <desc>Created with Sketch.</desc>
    <defs></defs>
    <g id="Symbols" stroke="none" stroke-width="1" fill="none" fill-rule="evenodd">
        <g id="PRINT-AND-DOWNLOAD" fill="#737373">
            <g id="icon_print">
                <g id="Group">
                    <rect id="Rectangle-path" x="4.99213169" y="11.9804444" width="4.99153909" height="1"></rect>
                    <path d="M3.9938107,0.998419753 L11.9804774,0.998419753 L11.9804774,2.99516049 L12.9786996,2.99516049 L12.9786996,0.998419753 C12.9787325,0.447572016 12.532214,0 11.9804774,0 L3.9938107,0 C3.44243621,0 2.99539095,0.447572016 2.99539095,0.998419753 L2.99539095,2.99516049 L3.9938107,2.99516049 L3.9938107,0.998419753 L3.9938107,0.998419753 Z" id="Shape"></path>
                    <rect id="Rectangle-path" x="4.99213169" y="9.98376955" width="5.98976132" height="1"></rect>
                    <path d="M14.9755391,3.99354733 L0.998650206,3.99354733 C0.44727572,3.99354733 0.000230452675,4.44098765 0.000230452675,4.99186831 L0.000230452675,10.9821893 C0.000230452675,11.5339259 0.44727572,11.9804115 0.998650206,11.9804115 L2.99539095,11.9804115 L2.99539095,14.9756379 C2.99539095,15.5275391 3.44243621,15.9740247 3.9938107,15.9740247 L11.9804774,15.9740247 C12.532214,15.9740247 12.9786996,15.5275391 12.9786996,14.9756379 L12.9786996,11.9804115 L14.9755062,11.9804115 C15.5272757,11.9804115 15.9737613,11.5339259 15.9737613,10.9821893 L15.9737613,4.99186831 C15.9737942,4.44098765 15.5273086,3.99354733 14.9755391,3.99354733 L14.9755391,3.99354733 Z M11.9804774,14.9756708 L3.9938107,14.9756708 L3.9938107,8.98534979 L11.9804774,8.98534979 L11.9804774,14.9756708 L11.9804774,14.9756708 Z M13.9769877,6.98870782 C13.4252181,6.98870782 12.9787325,6.54215638 12.9787325,5.99028807 C12.9787325,5.43947325 13.4252181,4.99186831 13.9769877,4.99186831 C14.5289218,4.99186831 14.9755391,5.43944033 14.9755391,5.99028807 C14.9755391,6.54212346 14.5288889,6.98870782 13.9769877,6.98870782 L13.9769877,6.98870782 Z" id="Shape"></path>
                </g>
            </g>
        </g>
    </g>
</svg>