<?xml version="1.0" encoding="UTF-8"?>
<svg width="26px" height="26px" viewBox="0 0 26 26" version="1.1" xmlns="http://www.w3.org/2000/svg" xmlns:xlink="http://www.w3.org/1999/xlink">
    <!-- Generator: Sketch 45.2 (43514) - http://www.bohemiancoding.com/sketch -->
    <title>icon_search</title>
    <desc>Created with Sketch.</desc>
    <defs></defs>
    <g id="Symbols" stroke="none" stroke-width="1" fill="none" fill-rule="evenodd">
        <g id="top-bar" transform="translate(-40.000000, -21.000000)" fill="#64758E">
            <g id="icon_search">
                <g transform="translate(40.000000, 21.000000)">
                    <g id="Capa_1">
                        <path d="M25.7722838,24.6740576 L19.4538803,18.3556541 C21.1487805,16.4070953 22.1749446,13.864745 22.1749446,11.086031 C22.1749446,4.96940133 17.1997783,0 11.0889135,0 C4.97228381,0 0.00288248337,4.9751663 0.00288248337,11.086031 C0.00288248337,17.1968958 4.97804878,22.1720621 11.0889135,22.1720621 C13.8676275,22.1720621 16.4099778,21.145898 18.3585366,19.4509978 L24.6769401,25.7694013 C24.8268293,25.9192905 25.0286031,26 25.224612,26 C25.4206208,26 25.6223947,25.9250554 25.7722838,25.7694013 C26.0720621,25.4696231 26.0720621,24.9738359 25.7722838,24.6740576 L25.7722838,24.6740576 Z M1.55365854,11.086031 C1.55365854,5.82838137 5.83126386,1.55654102 11.0831486,1.55654102 C16.3407982,1.55654102 20.6126386,5.83414634 20.6126386,11.086031 C20.6126386,16.3379157 16.3407982,20.621286 11.0831486,20.621286 C5.83126386,20.621286 1.55365854,16.3436807 1.55365854,11.086031 L1.55365854,11.086031 Z" id="Shape"></path>
                    </g>
                </g>
            </g>
        </g>
    </g>
</svg>