<?xml version="1.0" encoding="utf-8"?>
<!-- Generator: Adobe Illustrator 22.1.0, SVG Export Plug-In . SVG Version: 6.00 Build 0)  -->
<svg version="1.1" id="Layer_1" xmlns="http://www.w3.org/2000/svg" xmlns:xlink="http://www.w3.org/1999/xlink" x="0px" y="0px"
	 viewBox="0 0 16 16" style="enable-background:new 0 0 16 16;" xml:space="preserve">
<style type="text/css">
	.st0{fill:#6D7E94;}
</style>
<path class="st0" d="M10.4,5.1l-1-1L4.3,9.2c-0.8,0.8-0.8,2.2,0,3s2.2,0.8,3,0l6.1-6.1c1.4-1.4,1.4-3.7,0-5.1s-3.7-1.4-5.1,0L2,7.4
	c0,0,0,0,0,0c-2,2-2,5.1,0,7.1s5.1,2,7.1,0c0,0,0,0,0,0l0,0l4.4-4.4l-1-1L8,13.5c0,0,0,0,0,0c-1.4,1.4-3.7,1.4-5,0s-1.4-3.7,0-5
	c0,0,0,0,0,0l0,0l6.4-6.4c0.8-0.8,2.2-0.8,3,0s0.8,2.2,0,3l-6.1,6.1c-0.3,0.3-0.7,0.3-1,0s-0.3-0.7,0-1L10.4,5.1L10.4,5.1z"/>
</svg>
