<?xml version="1.0" encoding="UTF-8"?>
<svg width="15px" height="18px" viewBox="0 0 15 18" version="1.1" xmlns="http://www.w3.org/2000/svg" xmlns:xlink="http://www.w3.org/1999/xlink">
    <!-- Generator: Sketch 45.2 (43514) - http://www.bohemiancoding.com/sketch -->
    <title>icon_organizations</title>
    <desc>Created with Sketch.</desc>
    <defs></defs>
    <g id="Symbols" stroke="none" stroke-width="1" fill="none" fill-rule="evenodd">
        <g id="sidebar" transform="translate(-28.000000, -376.000000)" fill="#EFEFEF">
            <g transform="translate(-1.000000, 0.000000)" id="icon_organizations">
                <g transform="translate(29.000000, 376.756000)">
                    <g id="Group">
                        <rect id="Rectangle-path" x="5.78087349" y="13" width="3.63704819" height="3.61746988"></rect>
                        <path d="M0.00225903614,16.6174699 L4.58358434,16.6174699 L4.58358434,12.313253 C4.58358434,11.9427711 4.84563253,11.6445783 5.17996988,11.6445783 L9.99171687,11.6445783 C10.3260542,11.6445783 10.5881024,11.9427711 10.5881024,12.313253 L10.5881024,16.6174699 L14.9887048,16.6174699 L14.9887054,0.00211715698 L0.00225903614,0.00211715698 L0.00225903614,16.6174699 Z M6.44503012,8.60692771 L3.9871988,8.60692771 L3.9871988,6.16716867 L6.42695783,6.16716867 L6.42695783,8.60692771 L6.44503012,8.60692771 L6.44503012,8.60692771 Z M6.44503012,4.0436747 L3.9871988,4.0436747 L3.9871988,1.60391566 L6.42695783,1.60391566 L6.42695783,4.0436747 L6.44503012,4.0436747 L6.44503012,4.0436747 Z M11.189006,8.60692771 L8.7311747,8.60692771 L8.7311747,6.16716867 L11.1709337,6.16716867 L11.1709337,8.60692771 L11.189006,8.60692771 L11.189006,8.60692771 Z M11.189006,4.0436747 L8.7311747,4.0436747 L8.7311747,1.60391566 L11.1709337,1.60391566 L11.1709337,4.0436747 L11.189006,4.0436747 L11.189006,4.0436747 Z" id="Shape"></path>
                    </g>
                </g>
            </g>
        </g>
    </g>
</svg>