<?xml version="1.0" encoding="UTF-8"?>
<svg width="14px" height="15px" viewBox="0 0 14 15" version="1.1" xmlns="http://www.w3.org/2000/svg" xmlns:xlink="http://www.w3.org/1999/xlink">
    <!-- Generator: Sketch 45.2 (43514) - http://www.bohemiancoding.com/sketch -->
    <title>icon_review</title>
    <desc>Created with Sketch.</desc>
    <defs></defs>
    <g id="Desktop" stroke="none" stroke-width="1" fill="none" fill-rule="evenodd">
        <g id="Dashboard-Munireg" transform="translate(-293.000000, -181.000000)" fill="#404040">
            <g id="icon_review" transform="translate(293.000000, 181.000000)">
                <g id="Group">
                    <path d="M12.9025532,2.23132979 L6.96053191,2.23132979 C6.47930851,2.23132979 6.09058511,2.62090426 6.09058511,3.10047872 C6.09058511,3.58106383 6.4793617,3.97042553 6.96053191,3.97042553 L12.9025532,3.97042553 C13.3837766,3.97042553 13.7724468,3.58106383 13.7724468,3.10047872 C13.7725532,2.62090426 13.3837766,2.23132979 12.9025532,2.23132979 L12.9025532,2.23132979 Z" id="Shape"></path>
                    <path d="M12.9025532,7.56670213 L6.96053191,7.56670213 C6.47930851,7.56670213 6.09058511,7.9562234 6.09058511,8.43659574 C6.09058511,8.91643617 6.4793617,9.30664894 6.96053191,9.30664894 L12.9025532,9.30664894 C13.3837766,9.30664894 13.7724468,8.9162234 13.7724468,8.43659574 C13.7725532,7.9562234 13.3837766,7.56670213 12.9025532,7.56670213 L12.9025532,7.56670213 Z" id="Shape"></path>
                    <path d="M0.348723404,2.43574468 C-0.0181914894,2.74531915 -0.0654255319,3.29409574 0.244202128,3.66164894 L1.51308511,5.16537234 C1.67888298,5.36212766 1.92202128,5.47414894 2.17776596,5.47414894 C2.19893617,5.47414894 2.21989362,5.47329787 2.24175532,5.47164894 C2.5193617,5.45148936 2.77095745,5.29835106 2.91744681,5.06106383 L5.20010638,1.36547872 C5.45255319,0.956542553 5.32643617,0.421329787 4.91755319,0.169095745 C4.50861702,-0.085 3.97340426,0.0427659574 3.72090426,0.451702128 L2.06845745,3.12579787 L1.5737234,2.54005319 C1.26398936,2.1725 0.716329787,2.12531915 0.348723404,2.43574468 L0.348723404,2.43574468 Z" id="Shape"></path>
                    <path d="M2.43191489,7.13265957 C1.71095745,7.13265957 1.1268617,7.71659574 1.1268617,8.43675532 C1.1268617,9.15712766 1.71090426,9.74101064 2.43191489,9.74101064 C3.15228723,9.74101064 3.73617021,9.15712766 3.73617021,8.43675532 C3.73617021,7.71648936 3.15228723,7.13265957 2.43191489,7.13265957 L2.43191489,7.13265957 Z" id="Shape"></path>
                    <path d="M12.9025532,12.7850532 L6.96053191,12.7850532 C6.47930851,12.7850532 6.09058511,13.1738298 6.09058511,13.6551596 C6.09058511,14.1347872 6.4793617,14.5243085 6.96053191,14.5243085 L12.9025532,14.5243085 C13.3837766,14.5243085 13.7724468,14.1347872 13.7724468,13.6551596 C13.7725532,13.1737766 13.3837766,12.7850532 12.9025532,12.7850532 L12.9025532,12.7850532 Z" id="Shape"></path>
                    <path d="M2.43191489,12.3510106 C1.71095745,12.3510106 1.1268617,12.9348936 1.1268617,13.655266 C1.1268617,14.3754255 1.71090426,14.9595745 2.43191489,14.9595745 C3.15228723,14.9595745 3.73617021,14.3755851 3.73617021,13.655266 C3.73617021,12.9348936 3.15228723,12.3510106 2.43191489,12.3510106 L2.43191489,12.3510106 Z" id="Shape"></path>
                </g>
            </g>
        </g>
    </g>
</svg>