<?xml version="1.0" encoding="UTF-8"?>
<svg width="21px" height="18px" viewBox="0 0 21 18" version="1.1" xmlns="http://www.w3.org/2000/svg" xmlns:xlink="http://www.w3.org/1999/xlink">
    <!-- Generator: Sketch 45.2 (43514) - http://www.bohemiancoding.com/sketch -->
    <title>icon_changelog</title>
    <desc>Created with Sketch.</desc>
    <defs></defs>
    <g id="Symbols" stroke="none" stroke-width="1" fill="none" fill-rule="evenodd">
        <g id="Global-Change-Logs-Button" transform="translate(-26.000000, -18.000000)" fill-rule="nonzero" fill="#F5F5F5">
            <path d="M35.2479324,27.5626158 C35.0304202,28.0577712 34.844865,28.4739209 34.6912273,28.8114588 C34.5375502,29.1488785 34.3349329,29.5426071 34.0837693,29.9927627 C33.8324876,30.4427214 33.5924361,30.8176146 33.3638119,31.117679 C33.1351089,31.4175463 32.8574656,31.729038 32.5312761,32.0513264 C32.2050079,32.3738907 31.8675487,32.6308072 31.5187018,32.8221549 C31.1700518,33.013345 30.7705702,33.1708443 30.3205722,33.2946528 C29.8704953,33.4184614 29.3905894,33.4804839 28.8804602,33.4804839 L26.3603925,33.4804839 C26.255498,33.4804839 26.169163,33.4467931 26.1016239,33.3793328 C26.0341242,33.3116755 26.0001576,33.2253799 26.0001576,33.1204461 L26.0001576,30.9601797 C26.0001576,30.8550488 26.034006,30.7689896 26.1013481,30.7015687 C26.168769,30.6339114 26.2550646,30.6004571 26.3601166,30.6004571 L28.8801056,30.6004571 C29.2400646,30.6004571 29.5664117,30.5441088 29.8588316,30.4316487 C30.1513303,30.3191492 30.4100989,30.1503408 30.6351373,29.9251448 C30.8600969,29.7001852 31.051484,29.4695908 31.2089439,29.2333221 C31.366325,28.9970928 31.5352122,28.7063673 31.715172,28.3614214 C31.9551447,27.8964497 32.2476434,27.255104 32.5927076,26.4376207 C32.8101803,25.9425834 32.995775,25.5263156 33.1495703,25.1887776 C33.3033262,24.8513185 33.5058647,24.4575111 33.7570282,24.0075131 C34.0082311,23.5574363 34.248322,23.1824642 34.4770251,22.8825574 C34.7056493,22.5825719 34.9832137,22.2711985 35.309482,21.9487918 C35.6357897,21.6262276 35.9732488,21.3693898 36.3220564,21.1781209 C36.6707457,20.9867733 37.070188,20.8293528 37.5203042,20.705623 C37.9704204,20.5818932 38.4503658,20.5198708 38.9604949,20.5198708 L41.8403247,20.5198708 L41.8403247,18.359959 C41.8403247,18.2549463 41.8740548,18.168769 41.9411999,18.1012693 C42.0088572,18.0336907 42.0949164,18 42.2000867,18 C42.2899287,18 42.3802829,18.0373159 42.4700855,18.1122631 L46.0589183,21.7011353 C46.126615,21.7689502 46.1603058,21.8551276 46.1603058,21.9601797 C46.1603058,22.0652318 46.126615,22.1513697 46.0589183,22.2189483 L42.458737,25.8188931 C42.391592,25.8864322 42.3052964,25.9200835 42.2001261,25.9200835 C42.1027579,25.9200835 42.0183537,25.8845014 41.94715,25.8132189 C41.8759463,25.7420545 41.8403641,25.657611 41.8403641,25.5601245 L41.8403641,23.4000552 L38.9605343,23.4000552 C38.6003389,23.4000552 38.2741494,23.4563246 37.9818083,23.5688241 C37.689152,23.6812054 37.430541,23.850132 37.205345,24.0751704 C36.9804248,24.30013 36.7890377,24.5307639 36.631696,24.7670325 C36.4741967,25.0033012 36.3053095,25.2939479 36.1253103,25.6388939 C35.8852982,26.103905 35.5928783,26.7451719 35.2479324,27.5626158 Z M26.359959,23.399937 C26.2550646,23.399937 26.168769,23.3662856 26.1011905,23.2987071 C26.0336907,23.2312468 26,23.1451876 26,23.0400961 L26,20.8800268 C26,20.7749747 26.0338484,20.6887973 26.1011905,20.6213764 C26.1686113,20.5537979 26.2549069,20.5201072 26.359959,20.5201072 L28.8799874,20.5201072 C30.7550449,20.5201072 32.2925644,21.3639914 33.4925854,23.051484 C33.042548,23.7414941 32.5289119,24.7652593 31.9512831,26.1227797 C31.7862575,25.7853206 31.6475147,25.5133909 31.535094,25.3070696 C31.4225945,25.1009453 31.2706906,24.8627458 31.0794611,24.5926288 C30.8881923,24.3226693 30.6969628,24.1108708 30.5056939,23.9570361 C30.3144645,23.8032014 30.0782352,23.6720242 29.7969273,23.5631893 C29.5156195,23.4543544 29.2100385,23.399937 28.8800268,23.399937 L26.359959,23.399937 Z M42.4703613,28.1928888 L46.0588789,31.7814852 C46.1265756,31.8488667 46.1602664,31.9350441 46.1602664,32.0400961 C46.1602664,32.1452664 46.1265756,32.2312862 46.0591547,32.2989829 L42.4589735,35.8988884 C42.3918284,35.9663093 42.3055328,36 42.2003625,36 C42.1029943,36 42.0185901,35.9644178 41.9473864,35.8931747 C41.8761827,35.821971 41.8406005,35.7375668 41.8406005,35.6400804 L41.8406005,33.4799716 C41.600549,33.4799716 41.2817676,33.4819813 40.8842168,33.4856459 C40.486666,33.4891528 40.1828582,33.4931721 39.9726358,33.4969549 C39.7628469,33.5004619 39.4890653,33.4969549 39.151685,33.4856459 C38.8141865,33.4742974 38.5478522,33.4554227 38.3528794,33.4292582 C38.1578671,33.4033695 37.917855,33.3637287 37.6329219,33.3113997 C37.3480282,33.2588342 37.1120354,33.1894825 36.9240371,33.1032263 C36.736354,33.0168913 36.5189601,32.9100661 36.2713823,32.7825141 C36.0239228,32.6552379 35.8026672,32.5050284 35.607655,32.3326737 C35.4126821,32.1600825 35.2063607,31.9594354 34.9889274,31.7307324 C34.7714152,31.5021475 34.5613898,31.2414876 34.3589695,30.9490282 C34.8015595,30.2514525 35.3114916,29.2276873 35.8889628,27.8777326 C36.0539884,28.2149553 36.1927312,28.4872001 36.3051125,28.6931274 C36.4175726,28.8994882 36.5695553,29.1377271 36.760903,29.4077259 C36.9521324,29.6778429 37.1434801,29.8897991 37.334552,30.0435156 C37.525742,30.1973897 37.7620107,30.3285669 38.0433185,30.4372835 C38.3246264,30.5461973 38.630168,30.6006935 38.9602979,30.6006935 L41.8404035,30.6006935 L41.8404035,28.4404271 C41.8404035,28.3355327 41.8740942,28.2492371 41.9415151,28.1818162 C42.0088966,28.1142771 42.0952316,28.0807046 42.2001261,28.0807046 C42.2902045,28.0807046 42.3802829,28.1179417 42.4703613,28.1928888 Z" id="icon_changelog"></path>
        </g>
    </g>
</svg>