<?xml version="1.0" encoding="UTF-8"?>
<svg width="18px" height="18px" viewBox="0 0 18 18" version="1.1" xmlns="http://www.w3.org/2000/svg" xmlns:xlink="http://www.w3.org/1999/xlink">
    <!-- Generator: Sketch 45.2 (43514) - http://www.bohemiancoding.com/sketch -->
    <title>icon_pay</title>
    <desc>Created with Sketch.</desc>
    <defs></defs>
    <g id="Desktop" stroke="none" stroke-width="1" fill="none" fill-rule="evenodd">
        <g id="invoices" transform="translate(-1043.000000, -238.000000)" fill="#76C794">
            <g id="main" transform="translate(253.000000, 67.000000)">
                <g id="table" transform="translate(40.000000, 95.000000)">
                    <g id="icon_pay" transform="translate(750.000000, 76.000000)">
                        <path d="M0,0 L18,0 L18,18 L0,18 L0,0 Z M9.37952051,3.97668927 L9.37952051,3.15946944 L8.7108861,3.15946944 L8.7108861,4.00145351 C8.38069462,4.02621787 8.06082642,4.09844617 7.7512719,4.21814059 C7.44171739,4.337835 7.16518617,4.5008646 6.92166995,4.70723427 C6.67815374,4.91360395 6.48416915,5.16330751 6.33971038,5.45635245 C6.1952516,5.74939739 6.1230233,6.08164759 6.1230233,6.453113 C6.1230233,6.84934278 6.18906061,7.18572031 6.3211372,7.46225568 C6.45321379,7.73879104 6.63688005,7.97611261 6.87214148,8.1742275 C7.10740291,8.37234239 7.38187046,8.53537199 7.69555237,8.66332119 C8.00923428,8.79127039 8.34767547,8.90477201 8.7108861,9.00382945 L8.7108861,11.7526598 C8.39720419,11.744405 8.071145,11.6556674 7.73269873,11.4864442 C7.39425246,11.3172211 7.11359391,11.1005362 6.89071466,10.836383 L5.80108821,11.876481 C6.19731799,12.2562012 6.64513347,12.5389234 7.14454809,12.7246561 C7.64396271,12.9103888 8.16607016,13.0115084 8.7108861,13.028018 L8.7108861,13.9195306 L9.37952051,13.9195306 L9.37952051,13.028018 C9.72622157,13.0197632 10.0584718,12.9578533 10.3762811,12.8422862 C10.6940904,12.7267192 10.9747489,12.5595623 11.2182651,12.3408104 C11.4617813,12.1220586 11.6557659,11.8496547 11.8002247,11.5235906 C11.9446835,11.1975265 12.0169118,10.8198757 12.0169118,10.3906267 C12.0169118,9.9696326 11.9384925,9.61468208 11.7816515,9.32576454 C11.6248106,9.03684699 11.4205077,8.79127076 11.1687367,8.58902847 C10.9169657,8.38678619 10.6342434,8.21962926 10.3205615,8.08755267 C10.0068796,7.95547608 9.69320242,7.83991079 9.37952051,7.74085335 L9.37952051,5.23966538 C9.66843806,5.23966538 9.9552876,5.29538435 10.2400778,5.40682398 C10.5248679,5.5182636 10.7621895,5.6812932 10.9520496,5.89591766 L11.9550012,4.8558197 C11.6165549,4.56690215 11.2162038,4.35021724 10.7539357,4.20575847 C10.2916676,4.06129969 9.8335338,3.98494406 9.37952051,3.97668927 Z M8.7108861,5.23966538 L8.7108861,7.56750368 C8.39720419,7.47670103 8.13511864,7.34256275 7.92462157,7.16508483 C7.7141245,6.98760691 7.60887754,6.72552135 7.60887754,6.37882029 C7.60887754,6.01560966 7.72031549,5.74320578 7.94319474,5.56160046 C8.16607399,5.37999515 8.42196855,5.27268452 8.7108861,5.23966538 Z M9.37952051,11.7526598 L9.37952051,9.20194335 C9.70971199,9.31751037 9.98417954,9.46815797 10.2029314,9.65389068 C10.4216833,9.83962339 10.5310575,10.1140909 10.5310575,10.4773016 C10.5310575,10.848767 10.4258106,11.1500622 10.2153135,11.3811962 C10.0048164,11.6123303 9.72622157,11.7361502 9.37952051,11.7526598 Z" id="Combined-Shape"></path>
                    </g>
                </g>
            </g>
        </g>
    </g>
</svg>