<?xml version="1.0" encoding="utf-8"?>
<!-- Generator: Adobe Illustrator 22.1.0, SVG Export Plug-In . SVG Version: 6.00 Build 0)  -->
<svg version="1.1" id="Capa_1" xmlns="http://www.w3.org/2000/svg" xmlns:xlink="http://www.w3.org/1999/xlink" x="0px" y="0px"
	 viewBox="0 0 612 612" style="enable-background:new 0 0 612 612;" xml:space="preserve">
<g>
	<path d="M575.5,129.9v-0.7h-3.6H415h-129V93.7c0-10.9-4.1-20.2-11.9-28.2c-7.7-7.9-17.2-11.9-28.2-11.9H40.1
		c-11.3,0-20.8,4.1-28.5,11.9C4.1,73.2,0,82.8,0,93.7v35.5v36.5v352.6c0,10.9,3.9,20.6,11.6,28.5c7.5,7.7,17.2,11.6,28.5,11.6h531.7
		c11.3,0,21-3.9,28.5-11.6c7.7-7.9,11.6-17.6,11.6-28.5v-144v-16.3V253.3V169v-3.3C612,146.7,595.1,131.2,575.5,129.9z M36.8,93.7
		c0-2.3,1-3.3,3.3-3.3h205.7c1.3,0,3.7,2,3.7,3.3v35.5H36.8V93.7z M575.5,169v84.3v104.8v16.3v144c0,1.3-2,3.3-3.6,3.3H40.1
		c-2.3,0-3.3-1-3.3-3.3V165.7h538.7L575.5,169L575.5,169z"/>
</g>
<path d="M422.3,223.7c-10.1-6.2-23.4-3-29.6,7.1L284.1,407.6l-53.9-53.8c-8.4-8.4-22-8.4-30.4,0s-8.4,22,0,30.4l73.2,73
	c0.1,0.1,0.1,0.1,0.2,0.2c0.3,0.3,0.6,0.6,0.9,0.8c0.2,0.2,0.5,0.4,0.8,0.6c0.3,0.2,0.5,0.4,0.8,0.6c0.3,0.2,0.7,0.5,1,0.7
	c0.1,0,0.1,0.1,0.2,0.1c0.2,0.1,0.3,0.2,0.5,0.3c0.4,0.2,0.8,0.5,1.2,0.7c0.3,0.1,0.5,0.2,0.8,0.4c0.4,0.2,0.8,0.3,1.1,0.5
	c0.3,0.1,0.6,0.2,0.9,0.3c0.3,0.1,0.7,0.2,1,0.3c0.4,0.1,0.7,0.2,1.1,0.3c0.3,0.1,0.6,0.1,0.9,0.2c0.4,0.1,0.8,0.1,1.2,0.2
	c0.3,0,0.6,0.1,0.9,0.1c0.4,0,0.8,0,1.2,0.1c0.3,0,0.6,0,0.9,0c0.4,0,0.7,0,1.1-0.1c0.3,0,0.7-0.1,1-0.1c0.3,0,0.7-0.1,1-0.1
	c0.4-0.1,0.7-0.1,1.1-0.2c0.3-0.1,0.6-0.1,0.9-0.2c0.4-0.1,0.8-0.2,1.1-0.3c0.3-0.1,0.6-0.2,0.8-0.3c0.4-0.1,0.7-0.3,1.1-0.4
	c0.3-0.1,0.6-0.3,0.8-0.4c0.3-0.2,0.7-0.3,1-0.5c0.3-0.2,0.6-0.4,0.9-0.5c0.3-0.2,0.6-0.3,0.8-0.5c0.3-0.2,0.7-0.5,1-0.7
	c0.2-0.2,0.5-0.3,0.7-0.5c0.3-0.3,0.7-0.6,1-0.9c0.1-0.1,0.3-0.2,0.4-0.4c0.1-0.1,0.1-0.1,0.2-0.2c0.3-0.3,0.6-0.6,0.8-0.9
	c0.2-0.2,0.4-0.5,0.6-0.8c0.2-0.3,0.4-0.5,0.6-0.8c0.2-0.3,0.5-0.7,0.7-1c0-0.1,0.1-0.1,0.1-0.2l122.8-200
	C435.5,243.1,432.4,229.9,422.3,223.7z"/>
</svg>
