<?xml version="1.0" encoding="UTF-8"?>
<svg width="16px" height="17px" viewBox="0 0 16 17" version="1.1" xmlns="http://www.w3.org/2000/svg" xmlns:xlink="http://www.w3.org/1999/xlink">
    <!-- Generator: Sketch 45.2 (43514) - http://www.bohemiancoding.com/sketch -->
    <title>icon_notifications</title>
    <desc>Created with Sketch.</desc>
    <defs></defs>
    <g id="Desktop" stroke="none" stroke-width="1" fill="none" fill-rule="evenodd">
        <g id="Settings" transform="translate(-309.000000, -173.000000)" fill-rule="nonzero" fill="#6D7E94">
            <g id="REVIEW-GROUP-5" transform="translate(293.000000, 162.000000)">
                <path d="M28.1483311,18.0719211 C25.9585085,13.3598269 24.8203846,11.5704411 21.2421891,11.6443827 C19.9678975,11.6706943 20.2740348,10.7215535 19.3024234,11.0816586 C18.3315803,11.4419556 19.1647193,11.9689573 18.1714056,12.783851 C15.3840967,15.0716221 15.6410677,17.1882714 16.9336046,22.2328145 C17.4786596,24.357338 15.6207098,24.4616244 16.3559001,26.5214251 C16.8923126,28.023111 20.8486663,28.6519024 25.0228116,27.1029707 C29.1969569,25.5544231 31.8317732,22.4801826 31.2953608,20.9784967 C30.5599783,18.918696 29.0711602,20.0558596 28.1483311,18.0719211 Z M24.5697515,25.8340566 C20.8419444,27.217244 17.7780749,26.4035027 17.6486291,26.0420533 C17.4254601,25.4182554 18.8520521,23.3377127 23.1139669,21.7561314 C27.3762659,20.1747423 29.7544954,20.7610893 30.003208,21.4578685 C30.1503229,21.8692524 28.2979427,24.4508693 24.5697515,25.8340566 Z M23.3717061,22.47807 C21.4227217,23.2013529 20.0681507,24.0285381 19.1917992,24.7733313 C19.808491,25.3337507 20.9644761,25.4704946 22.1168121,25.042978 C23.5835439,24.4988833 24.4840945,23.249751 24.1278306,22.2531724 C24.1237974,22.2410729 24.1172675,22.2303177 24.1128502,22.2184103 C23.8723961,22.2979214 23.6256041,22.3839625 23.3717061,22.47807 Z" id="icon_notifications"></path>
            </g>
        </g>
    </g>
</svg>