<?xml version="1.0" encoding="UTF-8"?>
<svg width="26px" height="26px" viewBox="0 0 26 26" version="1.1" xmlns="http://www.w3.org/2000/svg" xmlns:xlink="http://www.w3.org/1999/xlink">
    <!-- Generator: Sketch 45.2 (43514) - http://www.bohemiancoding.com/sketch -->
    <title>icon_settings</title>
    <desc>Created with Sketch.</desc>
    <defs></defs>
    <g id="Symbols" stroke="none" stroke-width="1" fill="none" fill-rule="evenodd">
        <g id="sidebar" transform="translate(-145.000000, -21.000000)" fill="#7C7C7C">
            <g transform="translate(-1.000000, 0.000000)" id="icon_settings">
                <g transform="translate(146.000000, 21.000000)">
                    <g id="Capa_1">
                        <g id="Group">
                            <path d="M24.6538622,10.2643549 L22.8300626,9.95496033 C22.6400835,9.34159916 22.3958246,8.7499499 22.097286,8.1854405 L23.1720251,6.68189144 C23.6279749,6.0413904 23.5574113,5.16748643 22.9983299,4.61383299 L21.3807933,2.99629645 C21.0768267,2.69232985 20.6751566,2.52406263 20.2463466,2.52406263 C19.9098121,2.52406263 19.5895616,2.62719415 19.3181628,2.82260125 L17.8091858,3.89734029 C17.2229645,3.58794572 16.6096033,3.3328309 15.9745303,3.14285177 L15.6705637,1.34076409 C15.5402923,0.564563674 14.8726514,5.42797497e-05 14.085595,5.42797497e-05 L11.8004175,5.42797497e-05 C11.0133612,5.42797497e-05 10.3457203,0.564563674 10.2154489,1.34076409 L9.9006263,3.18627557 C9.29269311,3.3762547 8.70104384,3.62594154 8.13653445,3.92990814 L6.64384134,2.8551691 C6.37244259,2.659762 6.04676409,2.55663048 5.71022965,2.55663048 C5.28141962,2.55663048 4.8743215,2.7248977 4.57578288,3.0288643 L2.95281837,4.64640084 C2.39916493,5.20005428 2.32317328,6.07395825 2.77912317,6.71445929 L3.86471816,8.23972025 C3.56617954,8.80965762 3.32734864,9.40130689 3.14279749,10.0146681 L1.34070981,10.3186347 C0.564509395,10.4489061 0,11.116547 0,11.9036033 L0,14.1887808 C0,14.9758372 0.564509395,15.6434781 1.34070981,15.7737495 L3.18622129,16.088572 C3.37620042,16.6965052 3.62588727,17.2881545 3.92985386,17.8526639 L2.8605428,19.339929 C2.4045929,19.9804301 2.47515658,20.854334 3.034238,21.4079875 L4.65177453,23.025524 C4.95574113,23.3294906 5.35741127,23.4977578 5.78622129,23.4977578 C6.12275574,23.4977578 6.44300626,23.3946263 6.71440501,23.1992192 L8.23966597,22.1136242 C8.78789144,22.4013069 9.36325678,22.6347098 9.95490605,22.819261 L10.2588727,24.6430605 C10.3891441,25.419261 11.056785,25.9837704 11.8438413,25.9837704 L14.1344468,25.9837704 C14.9215031,25.9837704 15.5891441,25.419261 15.7194154,24.6430605 L16.02881,22.819261 C16.6421712,22.6292818 17.2338205,22.385023 17.7983299,22.0864843 L19.3018789,23.1612234 C19.5732777,23.3566305 19.8989562,23.459762 20.2354906,23.459762 L20.2354906,23.459762 C20.6643006,23.459762 21.0659708,23.2914948 21.3699374,22.9875282 L22.9874739,21.3699916 C23.5411273,20.8163382 23.617119,19.9424342 23.1611691,19.3019332 L22.0864301,17.7929562 C22.3849687,17.2230188 22.6346555,16.6313695 22.8192067,16.0234363 L24.6430063,15.7194697 C25.4192067,15.5891983 25.9837161,14.9215574 25.9837161,14.134501 L25.9837161,11.8493236 C25.994572,11.0622672 25.4300626,10.3946263 24.6538622,10.2643549 L24.6538622,10.2643549 Z M24.5290188,14.134501 C24.5290188,14.2050647 24.480167,14.2647724 24.4096033,14.2756284 L22.1298539,14.6555866 C21.8421712,14.7044384 21.6141962,14.9161294 21.5436326,15.1929562 C21.3373695,15.9908685 21.022547,16.7562129 20.5991649,17.4672777 C20.4526096,17.7169645 20.4634656,18.0263591 20.6317328,18.26519 L21.9724426,20.1541253 C22.0104384,20.208405 22.0050104,20.2898246 21.9561587,20.3386764 L20.3386221,21.9562129 C20.3006263,21.9942088 20.2626305,21.9996367 20.2354906,21.9996367 C20.2029228,21.9996367 20.1757829,21.9887808 20.154071,21.9724969 L18.2705637,20.6317871 C18.0371608,20.4635198 17.7223382,20.4526639 17.4726514,20.5992192 C16.7615866,21.0226013 15.9962422,21.3374238 15.1983299,21.5436868 C14.9160752,21.6142505 14.7043841,21.8476534 14.6609603,22.1299081 L14.2755741,24.4096576 C14.2647182,24.4802213 14.2050104,24.5290731 14.1344468,24.5290731 L11.8492693,24.5290731 C11.7787056,24.5290731 11.7189979,24.4802213 11.708142,24.4096576 L11.3281837,22.1299081 C11.2793319,21.8422255 11.0676409,21.6142505 10.7908142,21.5436868 C10.0146138,21.3428518 9.26555324,21.0334572 8.56534447,20.6317871 C8.45135699,20.5666514 8.32108559,20.5340835 8.19624217,20.5340835 C8.04968685,20.5340835 7.89770355,20.5775073 7.77286013,20.6697829 L5.87306889,22.0213486 C5.84592902,22.0376326 5.81878914,22.0484885 5.79164927,22.0484885 C5.76993737,22.0484885 5.72651357,22.0430605 5.68851775,22.0050647 L4.07098121,20.3875282 C4.02212944,20.3386764 4.01670146,20.2626848 4.05469729,20.202977 L5.38997912,18.3303257 C5.55824635,18.0914948 5.5691023,17.7766722 5.42254697,17.5269854 C4.99916493,16.8213486 4.67348643,16.0560042 4.46722338,15.2580919 C4.39123173,14.9812651 4.16325678,14.7695741 3.88100209,14.7207223 L1.58496868,14.3299081 C1.51440501,14.3190522 1.46555324,14.2593445 1.46555324,14.1887808 L1.46555324,11.9036033 C1.46555324,11.8330397 1.51440501,11.7733319 1.58496868,11.762476 L3.84843424,11.3825177 C4.13611691,11.333666 4.36951983,11.1219749 4.44008351,10.8397203 C4.64091858,10.0418079 4.95031315,9.27103549 5.36826722,8.55997077 C5.51482255,8.31028392 5.49853862,8.00088935 5.3302714,7.76748643 L3.97870564,5.8676952 C3.94070981,5.81341545 3.94613779,5.73199582 3.99498956,5.68314405 L5.6125261,4.06560752 C5.65052192,4.02761169 5.68851775,4.02218372 5.71565762,4.02218372 C5.74822547,4.02218372 5.77536534,4.03303967 5.79707724,4.04932359 L7.6697286,5.38460543 C7.9085595,5.55287265 8.22338205,5.5637286 8.47306889,5.41717328 C9.17870564,4.99379123 9.9440501,4.66811273 10.7419624,4.46184969 C11.0187891,4.38585804 11.2304802,4.15788309 11.2793319,3.87562839 L11.6701461,1.57959499 C11.6810021,1.50903132 11.7407098,1.46017954 11.8112735,1.46017954 L14.0964509,1.46017954 C14.1670146,1.46017954 14.2267223,1.50903132 14.2375783,1.57959499 L14.6175365,3.84306054 C14.6663883,4.13074322 14.8780793,4.36414614 15.160334,4.43470981 C15.9799582,4.64097286 16.7615866,4.96122338 17.4889353,5.3900334 C17.7386221,5.53658873 18.0480167,5.52573278 18.2868476,5.35746555 L20.159499,4.01132777 C20.1866388,3.99504384 20.2137787,3.98418789 20.2409186,3.98418789 C20.2626305,3.98418789 20.3060543,3.98961587 20.3440501,4.02761169 L21.9615866,5.64514823 C22.0104384,5.694 22.0158664,5.76999165 21.9778706,5.82969937 L20.6371608,7.71320668 C20.4688935,7.9466096 20.4580376,8.26143215 20.6045929,8.511119 C21.0279749,9.22218372 21.3427975,9.98752818 21.5490605,10.7854405 C21.6196242,11.0676952 21.8530271,11.2793862 22.1352818,11.32281 L24.4150313,11.7081962 C24.485595,11.7190522 24.5344468,11.7787599 24.5344468,11.8493236 L24.5344468,14.134501 L24.5290188,14.134501 L24.5290188,14.134501 Z" id="Shape"></path>
                            <path d="M12.994572,7.38210021 C9.9006263,7.38210021 7.3874739,9.89525261 7.3874739,12.9891983 C7.3874739,16.0831441 9.9006263,18.5962965 12.994572,18.5962965 C16.0885177,18.5962965 18.6016701,16.0831441 18.6016701,12.9891983 C18.6016701,9.89525261 16.0885177,7.38210021 12.994572,7.38210021 L12.994572,7.38210021 Z M12.994572,17.1307432 C10.7093946,17.1307432 8.85302714,15.2743758 8.85302714,12.9891983 C8.85302714,10.7040209 10.7093946,8.84765344 12.994572,8.84765344 C15.2797495,8.84765344 17.1361169,10.7040209 17.1361169,12.9891983 C17.1361169,15.2743758 15.2797495,17.1307432 12.994572,17.1307432 L12.994572,17.1307432 Z" id="Shape"></path>
                        </g>
                    </g>
                </g>
            </g>
        </g>
    </g>
</svg>