<?xml version="1.0" encoding="UTF-8"?>
<svg width="21px" height="19px" viewBox="0 0 21 19" version="1.1" xmlns="http://www.w3.org/2000/svg" xmlns:xlink="http://www.w3.org/1999/xlink">
    <!-- Generator: Sketch 45.2 (43514) - http://www.bohemiancoding.com/sketch -->
    <title>icon_property</title>
    <desc>Created with Sketch.</desc>
    <defs></defs>
    <g id="Symbols" stroke="none" stroke-width="1" fill="none" fill-rule="evenodd">
        <g id="sidebar" transform="translate(-26.000000, -123.000000)" fill="#EFEFEF">
            <g transform="translate(-1.000000, 0.000000)" id="icon_property">
                <g transform="translate(27.000000, 123.000000)">
                    <g id="Capa_1">
                        <g id="Group">
                            <path d="M2.8056,18.3118539 C2.8056,18.3118539 2.78727273,18.7750957 3.23781818,18.7750957 C3.79832727,18.7750957 8.43894545,18.76896 8.43894545,18.76896 L8.44658182,14.4885757 C8.44658182,14.4885757 8.37327273,13.7829757 9.0552,13.7829757 L11.2132364,13.7829757 C12.0196364,13.7829757 11.97,14.4885757 11.97,14.4885757 L11.9608364,18.7551548 L17.052,18.7551548 C17.6239636,18.7551548 17.598,18.1784035 17.598,18.1784035 L17.598,10.2871878 L10.4228727,3.87696522 L2.8056,10.2871878 C2.8056,10.2871878 2.8056,18.3118539 2.8056,18.3118539 L2.8056,18.3118539 Z" id="Shape"></path>
                            <path d="M0,9.69049565 C0,9.69049565 0.6468,10.8877148 2.05723636,9.69049565 L10.4862545,2.52865565 L18.3891273,9.64601217 C20.0217818,10.8286591 20.6334545,9.64601217 20.6334545,9.64601217 L10.4862545,0.414156522 L0,9.69049565 L0,9.69049565 Z" id="Shape"></path>
                            <polygon id="Shape" points="18.1974545 2.51178261 16.1646545 2.51178261 16.1730545 4.98751826 18.1974545 6.71240348"></polygon>
                        </g>
                    </g>
                </g>
            </g>
        </g>
    </g>
</svg>