<?xml version="1.0" encoding="UTF-8"?>
<svg width="17px" height="16px" viewBox="0 0 17 16" version="1.1" xmlns="http://www.w3.org/2000/svg" xmlns:xlink="http://www.w3.org/1999/xlink">
    <!-- Generator: Sketch 45.2 (43514) - http://www.bohemiancoding.com/sketch -->
    <title>icon_report</title>
    <desc>Created with Sketch.</desc>
    <defs></defs>
    <g id="Desktop" stroke="none" stroke-width="1" fill="none" fill-rule="evenodd">
        <g id="Dashboard-Munireg" transform="translate(-1145.000000, -181.000000)" fill="#EFEFEF">
            <g id="icon_report" transform="translate(1145.000000, 181.000000)">
                <g id="Capa_1">
                    <g id="Group">
                        <path d="M1,12.0499658 L1,14.7501711 C1,14.9144422 1.13347023,15.0513347 1.30116359,15.0513347 L3.38877481,15.0513347 C3.55304586,15.0513347 3.6899384,14.9178645 3.6899384,14.7501711 L3.6899384,10 L2.17385352,11.5160849 C1.85215606,11.83436 1.44147844,12.019165 1,12.0499658 L1,12.0499658 Z" id="Shape"></path>
                        <path d="M5,9 L5,13.7843943 C5,13.9486653 5.13347023,14.0855578 5.30116359,14.0855578 L7.38877481,14.0855578 C7.55304586,14.0855578 7.6899384,13.9520876 7.6899384,13.7843943 L7.6899384,10.9678303 C7.21423682,10.9575633 6.76933607,10.7693361 6.43394935,10.4339493 L5,9 L5,9 Z" id="Shape"></path>
                        <path d="M9,11.6317591 L9,14.7460643 C9,14.9103354 9.13347023,15.0472279 9.30116359,15.0472279 L11.3887748,15.0472279 C11.5530459,15.0472279 11.6899384,14.9137577 11.6899384,14.7460643 L11.6899384,9 L9.29774127,11.3921971 C9.20533881,11.4845996 9.10609172,11.5633128 9,11.6317591 L9,11.6317591 Z" id="Shape"></path>
                        <path d="M14.4880219,5 L12,7.4880219 L12,14.2778919 C12,14.4421629 12.1334702,14.5790554 12.3011636,14.5790554 L14.3887748,14.5790554 C14.5530459,14.5790554 14.6899384,14.4455852 14.6899384,14.2778919 L14.6899384,5.18822724 C14.6214921,5.13004791 14.5701574,5.07871321 14.532512,5.04449008 L14.4880219,5 L14.4880219,5 Z" id="Shape"></path>
                        <path d="M16.5160849,0.160848734 C16.4168378,0.0547570157 16.266256,0 16.0746064,0 L16.0198494,0 C15.0479124,0.0444900753 14.0793977,0.0924024641 13.1074606,0.136892539 C12.9774127,0.143737166 12.7994524,0.150581793 12.6591376,0.290896646 C12.6146475,0.335386721 12.5804244,0.386721424 12.5530459,0.448323066 C12.4093087,0.759753593 12.6112252,0.961670089 12.70705,1.05749487 L12.9500342,1.30390144 C13.1177276,1.47501711 13.2888433,1.64613279 13.4599589,1.81382615 L7.58726899,7.6899384 L4.9486653,5.0513347 C4.79123888,4.89390828 4.57905544,4.80492813 4.35318275,4.80492813 C4.12731006,4.80492813 3.91854894,4.89390828 3.76112252,5.0513347 L0.246406571,8.56262834 C-0.0821355236,8.89117043 -0.0821355236,9.42162902 0.246406571,9.75017112 L0.403832991,9.90759754 C0.561259411,10.065024 0.773442847,10.1540041 0.999315537,10.1540041 C1.22518823,10.1540041 1.43394935,10.065024 1.59137577,9.90759754 L4.35318275,7.14579055 L6.99178645,9.78439425 C7.14921287,9.94182067 7.3613963,10.0308008 7.58726899,10.0308008 C7.81314168,10.0308008 8.02190281,9.94182067 8.18275154,9.78439425 L14.8083504,3.15879535 L15.5578371,3.90485969 C15.6468172,3.99383984 15.7700205,4.11704312 15.9582478,4.11704312 C16.036961,4.11704312 16.1156742,4.09650924 16.1978097,4.05201916 C16.2525667,4.02121834 16.3004791,3.98699521 16.3415469,3.94592745 C16.4887064,3.79876797 16.5160849,3.61054073 16.5229295,3.46338125 C16.550308,2.83367556 16.5811088,2.20396988 16.6119097,1.57084189 L16.6563997,0.622861054 C16.6666667,0.424366872 16.6221766,0.270362765 16.5160849,0.160848734 L16.5160849,0.160848734 Z" id="Shape"></path>
                    </g>
                </g>
            </g>
        </g>
    </g>
</svg>