<?xml version="1.0" encoding="UTF-8"?>
<svg width="19px" height="18px" viewBox="0 0 19 18" version="1.1" xmlns="http://www.w3.org/2000/svg" xmlns:xlink="http://www.w3.org/1999/xlink">
    <!-- Generator: Sketch 45.2 (43514) - http://www.bohemiancoding.com/sketch -->
    <title>icon_municipalities</title>
    <desc>Created with Sketch.</desc>
    <defs></defs>
    <g id="Symbols" stroke="none" stroke-width="1" fill="none" fill-rule="evenodd">
        <g id="sidebar" transform="translate(-27.000000, -340.000000)" fill="#EFEFEF">
            <g transform="translate(-1.000000, 0.000000)" id="icon_municipalities">
                <g transform="translate(28.000000, 340.000000)">
                    <g id="Capa_1">
                        <g id="Group">
                            <path d="M2.7287234,5.12975669 L2.7287234,14.998772 L5.45744681,14.998772 L5.45744681,6.54574585 L8.1356383,6.54574585 L8.1356383,14.998772 L10.8643617,14.998772 L10.8643617,6.54574585 L13.5425532,6.54574585 L13.5425532,14.998772 L16.2712766,14.998772 L16.2712766,5.12975669 L18.0398936,5.12975669 C18.3095824,5.12975669 18.5285372,5.06539354 18.6968085,4.93666726 C18.8652314,4.80794097 18.9494681,4.64347168 18.9494681,4.44321649 C18.9494681,4.21429824 18.8315771,4.02833166 18.5957447,3.88540258 L18.5452128,3.84249381 L9.95478723,0.0665227216 C9.95478723,0.0665227216 9.71516374,-1.15463195e-14 9.47473394,-1.15463195e-14 C9.23430413,-1.15463195e-14 9.04521277,0.0665227216 9.04521277,0.0665227216 L0.454787234,3.84249381 L0.404255319,3.88540258 C0.134768617,4.02841748 0,4.21438406 0,4.44321649 C0,4.64347168 0.092625,4.80794097 0.277925532,4.93666726 C0.463226064,5.06539354 0.673742021,5.12975669 0.909574468,5.12975669 L2.7287234,5.12975669 Z" id="Shape"></path>
                            <polygon id="Shape" points="1.81914894 15.8333333 0 17.2493225 18.9494681 17.2493225 17.1808511 15.8333333"></polygon>
                        </g>
                    </g>
                </g>
            </g>
        </g>
    </g>
</svg>