<?xml version="1.0" encoding="UTF-8"?>
<svg width="22px" height="15px" viewBox="0 0 22 15" version="1.1" xmlns="http://www.w3.org/2000/svg" xmlns:xlink="http://www.w3.org/1999/xlink">
    <!-- Generator: Sketch 45.2 (43514) - http://www.bohemiancoding.com/sketch -->
    <title>icon_dashboard</title>
    <desc>Created with Sketch.</desc>
    <defs></defs>
    <g id="Desktop" stroke="none" stroke-width="1" fill="none" fill-rule="evenodd">
        <g id="Dashboard-Munireg" transform="translate(-25.000000, -89.000000)" fill="#EFEFEF">
            <g id="icon_dashboard" transform="translate(25.000000, 89.000000)">
                <g id="Capa_1">
                    <path d="M18.117,2.72616667 C16.1981111,1.08044444 13.7078333,0.0794444444 10.978,0.0794444444 C4.91516667,0.0794444444 0,4.99461111 0,11.0605 C0,11.2230556 0.0158888889,12.7410556 0.0232222222,12.903 L0.0232222222,14.5468889 L21.9144444,14.5468889 L21.9144444,13.0227778 L21.9352222,12.903 C21.9419444,12.7404444 21.9590556,11.2230556 21.9590556,11.0605 C21.9596667,5.67783333 18.117,2.72616667 18.117,2.72616667 L18.117,2.72616667 Z M2.67055556,12.903 C2.66138889,12.8027778 2.67422222,11.3452778 2.6675,11.2450556 L4.91944444,11.2450556 L4.91944444,10.5178333 L2.82577778,10.5178333 C2.82577778,10.5092778 2.6675,10.5190556 2.6675,10.5190556 C2.75611111,8.63377778 3.47416667,6.75277778 4.83022222,5.26961111 L4.88705556,5.2085 L4.9885,5.2965 L6.48694444,6.79616667 L6.9575,6.32438889 L5.36555556,4.73366667 C6.80655556,3.41611111 8.635,2.66016667 10.5856667,2.57338889 L10.6987222,2.57277778 C10.6987222,2.57277778 10.7457778,2.57094444 10.7427222,2.60088889 L10.7427222,4.82166667 L11.3422222,4.82166667 L11.3422222,2.57338889 C11.638,2.58561111 11.9337778,2.62044444 12.2252778,2.66627778 C13.9003333,2.8875 15.4574444,3.61044444 16.7181667,4.76238889 L15.1292778,6.3525 L15.5711111,6.79616667 L17.0970556,5.26961111 L17.1813889,5.20177778 L17.2535,5.29711111 C18.5728889,6.73933333 19.3276111,8.56655556 19.4162222,10.5178333 L17.1667222,10.5178333 L17.1667222,11.2450556 L19.4266111,11.242 C19.4266111,11.242 19.4284444,12.8070556 19.4205,12.8975 L2.67055556,12.903 L2.67055556,12.903 Z M13.9333333,7.656 C13.9333333,7.656 10.362,8.75111111 9.67816667,9.43372222 C8.99311111,10.1193889 8.99311111,11.2273333 9.67938889,11.913 C10.362,12.5980556 11.4711667,12.5980556 12.1568333,11.913 C12.8400556,11.2273333 13.9333333,7.656 13.9333333,7.656 L13.9333333,7.656 Z" id="Shape"></path>
                </g>
            </g>
        </g>
    </g>
</svg>