<?xml version="1.0" encoding="utf-8"?>
<!-- Generator: Adobe Illustrator 22.1.0, SVG Export Plug-In . SVG Version: 6.00 Build 0)  -->
<svg version="1.1" id="Layer_1" xmlns="http://www.w3.org/2000/svg" xmlns:xlink="http://www.w3.org/1999/xlink" x="0px" y="0px"
	 viewBox="0 0 70 70" style="enable-background:new 0 0 70 70;" xml:space="preserve">
<style type="text/css">
	.st0{fill:#EFEFEF;}
</style>
<title>icon_account</title>
<desc>Created with Sketch.</desc>
<g>
	<path class="st0" d="M35.6,20.5c-8.4,0-15.2,6.8-15.2,15.2c0,8.4,6.8,15.2,15.2,15.2c8.4,0,15.2-6.8,15.2-15.2
		C50.8,27.3,44,20.5,35.6,20.5L35.6,20.5z M43.1,37.1h-6v6c0,0.8-0.7,1.4-1.4,1.4c-0.8,0-1.4-0.7-1.4-1.4v-6h-5.9
		c-0.8,0-1.4-0.7-1.4-1.4c0-0.8,0.7-1.4,1.4-1.4h5.9v-6c0-0.8,0.7-1.4,1.4-1.4c0.8,0,1.4,0.7,1.4,1.4v6h6c0.8,0,1.4,0.7,1.4,1.4
		C44.5,36.5,43.9,37.1,43.1,37.1L43.1,37.1z M43.1,37.1"/>
	<path class="st0" d="M43.5,12.3V0.5H15.8c-3.6,0-6.5,3-6.5,6.6v55.3c0,3.6,2.9,6.6,6.5,6.6h39.7c3.6,0,6.5-3,6.5-6.6V19.9H51.2
		C47,19.9,43.5,16.5,43.5,12.3L43.5,12.3z M35.6,53.8c-10,0-18.1-8.1-18.1-18.1c0-10,8.1-18.1,18.1-18.1c10,0,18.1,8.1,18.1,18.1
		C53.7,45.7,45.6,53.8,35.6,53.8L35.6,53.8z M35.6,53.8"/>
	<path class="st0" d="M51.2,17h8.9L46.4,2.8v9.6C46.4,14.9,48.6,17,51.2,17L51.2,17z M51.2,17"/>
</g>
</svg>
