<?xml version="1.0" encoding="UTF-8"?>
<svg width="20px" height="18px" viewBox="0 0 20 18" version="1.1" xmlns="http://www.w3.org/2000/svg" xmlns:xlink="http://www.w3.org/1999/xlink">
    <!-- Generator: Sketch 45.2 (43514) - http://www.bohemiancoding.com/sketch -->
    <title>icon_entities</title>
    <desc>Created with Sketch.</desc>
    <defs></defs>
    <g id="Symbols" stroke="none" stroke-width="1" fill="none" fill-rule="evenodd">
        <g id="sidebar" transform="translate(-25.000000, -412.000000)" fill="#EFEFEF">
            <g transform="translate(-1.000000, 0.000000)" id="icon_entities">
                <g transform="translate(25.500000, 411.512000)">
                    <g id="Capa_1">
                        <path d="M0.5,3.48053976 C0.5,1.82780569 1.84331197,0.488 3.49420208,0.488 L17.5057979,0.488 C19.1594501,0.488 20.5,1.84092554 20.5,3.48053976 L20.5,15.4954602 C20.5,17.1481943 19.156688,18.488 17.5057979,18.488 L3.49420208,18.488 C1.84054993,18.488 0.5,17.1350745 0.5,15.4954602 L0.5,3.48053976 Z M12.5602859,8.29907353 C13.5123222,8.89599127 14.1799039,9.90610046 14.3014459,11.0786083 C14.6897122,11.2600219 15.1206339,11.3643476 15.5775085,11.3643476 C17.245435,11.3643476 18.5973008,10.0124818 18.5973008,8.34481238 C18.5973008,6.67688596 17.245435,5.32502016 15.5775085,5.32502016 C13.9255136,5.32553407 12.585468,6.65324565 12.5602859,8.29907353 Z M10.581952,14.4820416 C12.2498784,14.4820416 13.6017442,13.1299188 13.6017442,11.4622493 C13.6017442,9.79457989 12.2496215,8.44271408 10.581952,8.44271408 C8.91428253,8.44271408 7.56164585,9.79483685 7.56164585,11.4625063 C7.56164585,13.1301758 8.91428253,14.4820416 10.581952,14.4820416 Z M5.28318281,11.3648616 C5.87393352,11.3648616 6.42357065,11.1924415 6.88918191,10.8987364 C7.03719078,9.93333821 7.55470793,9.089739 8.29398144,8.51517676 C8.29706496,8.4586456 8.30246111,8.40262835 8.30246111,8.34558326 C8.30246111,6.67765684 6.95033835,5.32579103 5.28318281,5.32579103 C3.61499943,5.32579103 2.26339059,6.67765684 2.26339059,8.34558326 C2.26339059,10.0127388 3.61499943,11.3648616 5.28318281,11.3648616 Z" id="Combined-Shape" transform="translate(10.500000, 9.488000) rotate(-180.000000) translate(-10.500000, -9.488000) "></path>
                    </g>
                </g>
            </g>
        </g>
    </g>
</svg>