<?xml version="1.0" encoding="UTF-8"?>
<svg width="22px" height="27px" viewBox="0 0 22 27" version="1.1" xmlns="http://www.w3.org/2000/svg" xmlns:xlink="http://www.w3.org/1999/xlink">
    <!-- Generator: Sketch 45.2 (43514) - http://www.bohemiancoding.com/sketch -->
    <title>icon_logout</title>
    <desc>Created with Sketch.</desc>
    <defs></defs>
    <g id="Symbols" stroke="none" stroke-width="1" fill="none" fill-rule="evenodd">
        <g id="sidebar" transform="translate(-211.000000, -20.000000)" fill="#505050">
            <g transform="translate(-1.000000, 0.000000)" id="icon_logout">
                <g transform="translate(222.500000, 33.500000) rotate(-270.000000) translate(-222.500000, -33.500000) translate(209.000000, 22.000000)">
                    <g id="Layer_1" transform="translate(-0.000000, 0.062500)">
                        <g id="XMLID_2_" transform="translate(-0.000000, 0.000000)">
                            <path d="M16.6420595,12.5585859 C17.3786957,12.5585859 17.975901,11.9613806 17.975901,11.2247445 C17.975901,10.4881083 17.3786957,9.89090301 16.6420595,9.89090301 L1.18861691,9.89090301 C1.18861691,9.89090301 0.0912006085,9.89090301 0.0912006085,11.2247445 C0.0912006085,12.558586 1.18861691,12.5585859 1.18861691,12.5585859 L16.6420595,12.5585859 Z" id="XMLID_4_"></path>
                            <path d="M15.1777772,0 C11.5369235,0 8.14949975,1.80619919 6.11628074,4.83144055 C5.70545757,5.44278455 5.86800838,6.27154472 6.47935239,6.68245681 C7.09078532,7.09327998 7.91945656,6.93090701 8.33045757,6.31938516 C9.86713186,4.03273628 12.4268626,2.667594 15.1777772,2.667594 C19.7230643,2.66768293 23.4210064,6.36553608 23.4210064,10.9109121 C23.4210064,15.4562881 19.7230643,19.1541413 15.1777772,19.1541413 C12.4349545,19.1541413 9.8794032,17.7951347 8.34157292,15.5188897 C7.92906021,14.908435 7.10012221,14.7480183 6.48957851,15.1603532 C5.87921265,15.5727769 5.71861814,16.4018928 6.13104192,17.0122586 C8.16568369,20.0238948 11.5475943,21.8218242 15.1777772,21.8218242 C21.1940246,21.8218242 26.0886893,16.9272485 26.0886893,10.9109121 C26.0886893,4.89457571 21.1940246,0 15.1777772,0 L15.1777772,0 Z" id="XMLID_5_"></path>
                        </g>
                    </g>
                </g>
            </g>
        </g>
    </g>
</svg>