<?xml version="1.0" encoding="UTF-8"?>
<svg width="150px" height="127px" viewBox="0 0 150 127" version="1.1" xmlns="http://www.w3.org/2000/svg" xmlns:xlink="http://www.w3.org/1999/xlink">
    <!-- Generator: Sketch 41 (35326) - http://www.bohemiancoding.com/sketch -->
    <title>MuniReg-FinalLogo</title>
    <desc>Created with Sketch.</desc>
    <defs>
        <polygon id="path-1" points="0.0129682997 0.153458213 0.0129682997 19.0839337 28.4572046 19.0839337 28.4572046 0.153458213 0.0129682997 0.153458213"></polygon>
        <polygon id="path-3" points="0.113688761 19.6556196 39.6492795 19.6556196 39.6492795 9.8768732 39.6492795 0.0981268012 0.113688761 0.0981268012 0.113688761 19.6556196"></polygon>
    </defs>
    <g id="Desktop" stroke="none" stroke-width="1" fill="#495e7a" fill-rule="#495e7a">
        <g id="Login" transform="translate(-885.000000, -242.000000)">
            <g id="Group-2" transform="translate(703.000000, 177.000000)">
                <g id="MuniReg-FinalLogo" transform="translate(182.000000, 65.000000)">
                    <g id="Group-3" transform="translate(0.000000, 101.801153)">
                        <mask id="mask-2" fill="white">
                            <use xlink:href="#path-1"></use>
                        </mask>
                        <g id="Clip-2"></g>
                        <polyline id="Fill-1" fill="#495e7a" mask="url(#mask-2)" points="26.9329971 4.68523055 28.4163545 4.68523055 28.4163545 0.153458213 17.0660663 0.153458213 14.2082853 7.46152738 11.4181556 0.153458213 0 0.153458213 0 4.68523055 1.49697406 4.68523055 1.49697406 14.5519452 0.0408501441 14.5519452 0.0408501441 19.0839337 7.37615274 19.0839337 7.37615274 14.5519452 5.87917867 14.5519452 5.87917867 4.11376081 11.5407061 19.0839337 14.3714697 19.0839337 20.087464 3.97716138 20.087464 14.5519452 18.5768732 14.5519452 18.5768732 19.0839337 28.4572046 19.0839337 28.4572046 14.5519452 26.9329971 14.5519452 26.9329971 4.68523055"></polyline>
                    </g>
                    <path d="M49.1706052,107.684006 L40.5149135,107.684006 L40.5149135,111.834726 L42.325072,111.834726 L42.325072,116.053963 C41.6716859,116.462248 40.964049,116.666282 40.2019452,116.666282 C39.5760086,116.666282 39.1677233,116.480403 38.9773055,116.108213 C38.7773775,115.745317 38.6777378,115.033141 38.6777378,113.97147 L38.6777378,107.684006 L30.2399135,107.684006 L30.2399135,111.834726 L31.8322046,111.834726 L31.8322046,114.964841 C31.8322046,117.351225 32.3221902,118.975288 33.3021614,119.837464 C34.2728386,120.698991 35.4339337,121.130187 36.785879,121.130187 C38.6729827,121.130187 40.5196686,120.490202 42.325072,119.211095 L42.325072,120.885086 L50.7628963,120.885086 L50.7628963,116.73415 L49.1706052,116.73415 L49.1706052,107.684006" id="Fill-4" fill="#495e7a"></path>
                    <path d="M71.6533141,113.345533 C71.6533141,111.276873 71.2314121,109.77536 70.3876081,108.840778 C69.5347262,107.906412 68.2644813,107.439121 66.5770893,107.439121 C64.6534582,107.439121 62.8525937,108.078458 61.1742795,109.357781 L61.1742795,107.684006 L52.6275216,107.684006 L52.6275216,111.834726 L54.3287464,111.834726 L54.3287464,116.73415 L52.6275216,116.73415 L52.6275216,120.885086 L63.0795389,120.885086 L63.0795389,116.73415 L61.1742795,116.73415 L61.1742795,112.583646 C61.8728386,112.120461 62.5257925,111.889409 63.1340058,111.889409 C63.7960375,111.889409 64.2451729,112.088905 64.481196,112.487896 C64.6990634,112.896398 64.8079971,113.740418 64.8079971,115.019524 L64.8079971,120.885086 L73.2185879,120.885086 L73.2185879,116.73415 L71.6533141,116.73415 L71.6533141,113.345533" id="Fill-5" fill="#495e7a"></path>
                    <polyline id="Fill-6" fill="#495e7a" points="83.2076369 107.684006 75.0012968 107.684006 75.0012968 111.834726 76.3621037 111.834726 76.3621037 116.73415 75.0012968 116.73415 75.0012968 120.885086 84.3505764 120.885086 84.3505764 116.73415 83.2076369 116.73415 83.2076369 107.684006"></polyline>
                    <path d="M79.587536,101.573127 C78.5170029,101.573127 77.618732,101.79121 76.8929395,102.226513 C76.1580692,102.662032 75.7904179,103.238473 75.7904179,103.954755 C75.7904179,104.735231 76.1487752,105.315778 76.8657061,105.69683 C77.5819885,106.08696 78.4804755,106.282349 79.5600865,106.282349 C80.6217579,106.282349 81.5014409,106.068804 82.2004323,105.642363 C82.8899135,105.225216 83.2346542,104.658285 83.2346542,103.941354 C83.2346542,103.279323 82.9033141,102.716499 82.2410663,102.253746 C81.5697406,101.800072 80.6853026,101.573127 79.587536,101.573127" id="Fill-7" fill="#495e7a"></path>
                    <path d="M99.4432997,109.072046 C99.1621037,109.371614 98.8173631,109.55317 98.4090778,109.616715 C98.0282421,109.680259 97.3020173,109.711816 96.2314841,109.711816 L95.4153458,109.711816 L95.4153458,106.105115 L96.0821326,106.105115 C97.1887608,106.105115 97.9510807,106.137104 98.3682277,106.200648 C98.8039625,106.264193 99.1621037,106.445749 99.4432997,106.744885 C99.7244957,107.035375 99.8652017,107.425072 99.8652017,107.915058 C99.8652017,108.405259 99.7244957,108.79085 99.4432997,109.072046 L99.4432997,109.072046 Z M104.710375,112.02536 C105.535807,111.65317 106.202594,111.072839 106.710735,110.283501 C107.21866,109.48487 107.473055,108.595893 107.473055,107.615922 C107.473055,106.30915 107.055476,105.175288 106.221182,104.213256 C105.395317,103.270029 104.320029,102.657493 102.995317,102.376297 C102.523487,102.276441 102.006484,102.197118 101.444092,102.138329 C100.881268,102.079323 100.205836,102.033934 99.4164986,102.001729 C98.6267291,101.970173 97.7697406,101.954611 96.8440202,101.954611 L86.5556196,101.954611 L86.5556196,106.486383 L88.0932277,106.486383 L88.0932277,116.353098 L86.5556196,116.353098 L86.5556196,120.885086 L96.8440202,120.885086 L96.8440202,116.353098 L95.4153458,116.353098 L95.4153458,113.154683 L97.7422911,113.154683 L101.865994,120.885086 L108.684078,120.885086 L108.684078,116.353098 L107.323271,116.353098 L104.710375,112.02536 L104.710375,112.02536 Z" id="Fill-8" fill="#495e7a"></path>
                    <g id="Group-12" transform="translate(110.230548, 107.204611)">
                        <mask id="mask-4" fill="white">
                            <use xlink:href="#path-3"></use>
                        </mask>
                        <g id="Clip-10"></g>
                        <path d="M10.6746398,6.04582133 L6.82327089,6.04582133 C6.81397695,5.96412104 6.80987032,5.87355908 6.80987032,5.77327089 C6.80987032,5.02024496 6.97327089,4.38501441 7.29985591,3.86822767 C7.62665706,3.36008646 8.09805476,3.10569164 8.71512968,3.10569164 C9.31361671,3.10569164 9.79495677,3.33739193 10.1576369,3.79992795 C10.5205331,4.27175793 10.7020893,4.86613833 10.7020893,5.58263689 C10.7020893,5.6193804 10.6927954,5.77327089 10.6746398,6.04582133 L10.6746398,6.04582133 Z M14.6757925,2.00381844 C13.1059798,0.733357349 11.0740634,0.0981268012 8.57917867,0.0981268012 C5.98400576,0.0981268012 3.92896254,0.769884726 2.41383285,2.11231988 C0.880331412,3.45518732 0.113688761,5.13393372 0.113688761,7.14769452 C0.113688761,9.2074928 0.88962536,10.8724063 2.44128242,12.1428674 C3.9925072,13.4221902 6.30648415,14.0615274 9.38191643,14.0615274 C11.2147695,14.0615274 12.7886888,13.7079251 14.1045389,12.9998559 C14.7574928,12.6555476 15.3110231,12.2494236 15.7646974,11.7819164 C16.2181556,11.3150576 16.5721902,10.7865994 16.8263689,10.1963256 L11.1784582,9.50252161 C10.760879,10.4820605 10.0806916,10.9720461 9.13681556,10.9720461 C7.56721902,10.9720461 6.76902017,9.90172911 6.74178674,7.76023055 L17.139121,7.76023055 C17.0394813,5.18364553 16.2181556,3.26498559 14.6757925,2.00381844 L14.6757925,2.00381844 Z" id="Fill-9" fill="#495e7a" mask="url(#mask-4)"></path>
                        <path d="M30.6261527,9.16210375 C30.2358069,9.71563401 29.6414265,9.99207493 28.8434438,9.99207493 C28.0902017,9.99207493 27.5098703,9.72017291 27.1013689,9.1759366 C26.6930836,8.64056196 26.489049,7.96902017 26.489049,7.16174352 C26.489049,6.30886167 26.6930836,5.59193084 27.1013689,5.01138329 C27.5098703,4.42175793 28.0994957,4.12651297 28.8706772,4.12651297 C29.5871758,4.12651297 30.1588617,4.40770893 30.5853026,4.97053314 C31.0024496,5.52427954 31.2112392,6.245317 31.2112392,7.13429395 C31.2112392,7.95086455 31.0162824,8.62694524 30.6261527,9.16210375 L30.6261527,9.16210375 Z M31.1842219,0.479394813 L31.1842219,1.32298271 C29.9412104,0.59740634 28.4939481,0.234510086 26.8430836,0.234510086 C24.8286744,0.234510086 23.1138329,0.84704611 21.6985591,2.07146974 C20.2739914,3.29654179 19.5618156,4.95259366 19.5618156,7.03919308 C19.5618156,9.01729107 20.2467579,10.5637608 21.6168588,11.679683 C22.9685879,12.8048991 24.6287464,13.3672911 26.5979827,13.3672911 C28.2855908,13.3672911 29.814121,13.0229827 31.1842219,12.3330692 C31.1842219,13.1496398 31.0934438,13.7803314 30.9118876,14.2247118 C30.7216859,14.6693084 30.2907061,15.0548991 29.6191643,15.3814841 C28.9564841,15.717147 28.035951,15.8855187 26.8564841,15.8855187 C25.0690202,15.8855187 23.6446686,15.6626801 22.5829971,15.2182997 L20.7051873,18.5664986 C21.367219,18.8291066 22.4334294,19.0787464 23.9029539,19.3149856 C24.7651297,19.4416427 25.5293948,19.5326369 26.1961816,19.5868876 C26.8634006,19.6415706 27.6229107,19.6685879 28.4757925,19.6685879 C30.3810519,19.6685879 31.9100144,19.5192363 33.0620317,19.2194524 C34.2235591,18.9382565 35.1896974,18.4755043 35.9613112,17.8316282 C36.7320605,17.2143372 37.2674352,16.4706052 37.567219,15.5995677 C37.8572767,14.7283141 38.0025216,13.4857349 38.0025216,11.8705331 L38.0025216,4.63011527 L39.6492795,4.63011527 L39.6492795,0.479394813 L31.1842219,0.479394813 L31.1842219,0.479394813 Z" id="Fill-11" fill="#495e7a" mask="url(#mask-4)"></path>
                    </g>
                    <path d="M44.2588617,17.909438 L46.6964697,17.909438 L46.6964697,15.3583573 L44.2588617,15.3583573 L44.2588617,17.909438" id="Fill-13" fill="#495e7a"></path>
                    <path d="M104.910086,18.8271614 L107.347478,18.8271614 L107.347478,16.731268 L104.910086,16.731268 L104.910086,18.8271614" id="Fill-14" fill="#495e7a"></path>
                    <path d="M130.582133,38.3924352 L130.582133,40.7360231 L132.783285,40.7360231 L132.783285,38.3924352 L130.582133,38.3924352" id="Fill-15" fill="#495e7a"></path>
                    <path d="M127.023199,38.387464 L127.023199,40.7020893 L129.138977,40.7020893 L129.138977,38.387464 L127.023199,38.387464" id="Fill-16" fill="#495e7a"></path>
                    <path d="M30.9466859,37.7115994 L28.5043228,37.7115994 L28.5043228,40.2577089 L30.9466859,40.2577089 L30.9466859,37.7115994" id="Fill-17" fill="#495e7a"></path>
                    <path d="M32.4961816,40.2637608 L34.9372478,40.2637608 L34.9372478,37.7120317 L32.4961816,37.7120317 L32.4961816,40.2637608" id="Fill-18" fill="#495e7a"></path>
                    <path d="M32.9005764,33.264121 L30.4426513,33.264121 L30.4426513,35.8106628 L32.9005764,35.8106628 L32.9005764,33.264121" id="Fill-19" fill="#495e7a"></path>
                    <path d="M30.9466859,45.1225504 L28.5043228,45.1225504 L28.5043228,47.6686599 L30.9466859,47.6686599 L30.9466859,45.1225504" id="Fill-20" fill="#495e7a"></path>
                    <path d="M32.4961816,47.6747118 L34.9372478,47.6747118 L34.9372478,45.1229827 L32.4961816,45.1229827 L32.4961816,47.6747118" id="Fill-21" fill="#495e7a"></path>
                    <path d="M105.267795,39.4616715 L108.275576,39.4616715 L108.275576,36.4549712 L105.267795,36.4549712 L105.267795,39.4616715" id="Fill-22" fill="#495e7a"></path>
                    <path d="M105.764481,31.0865274 L102.864121,31.0865274 L102.864121,34.090634 L105.764481,34.090634 L105.764481,31.0865274" id="Fill-23" fill="#495e7a"></path>
                    <path d="M100.455692,39.4504323 L103.369669,39.4504323 L103.369669,36.4461095 L100.455692,36.4461095 L100.455692,39.4504323" id="Fill-24" fill="#495e7a"></path>
                    <path d="M21.3263689,45.4482709 L23.8904179,45.4482709 L23.8904179,49.4840058 L21.3263689,49.4840058 L21.3263689,45.4482709 L21.3263689,45.4482709 Z M21.3263689,37.6979827 L23.8904179,37.6979827 L23.8904179,41.7337176 L21.3263689,41.7337176 L21.3263689,37.6979827 L21.3263689,37.6979827 Z M28.1569885,33.7994957 C29.2681556,32.4507925 30.2386167,30.9862392 31.2737032,29.5744236 C31.3387608,29.4855908 31.4345101,29.4192363 31.5931556,29.2696686 C32.2649135,30.1936599 32.8977666,31.0651297 33.5317003,31.9361671 C34.4520173,33.2007925 35.3753602,34.4634726 36.2904899,35.7319885 C36.3724063,35.8454611 36.4506484,35.995245 36.4512968,36.1288184 C36.4534582,36.4884726 36.4530259,36.8498559 36.4543228,37.2097262 C36.4558357,38.251513 36.4569164,39.865634 36.457781,41.7382565 C36.4586455,44.1211816 36.4588617,46.9186599 36.4588617,49.4790346 C35.6282421,49.9327089 34.8073487,50.4023775 33.99683,50.8876081 C31.5654899,52.3430836 29.2277378,53.9384006 26.9939481,55.662536 L26.9935159,55.6629683 L26.9935159,41.7382565 L26.9935159,39.4610231 C26.9935159,38.8152017 27.0603026,38.160951 26.9798991,37.5252882 C26.7981268,36.0862392 27.2379683,34.9147695 28.1569885,33.7994957 L28.1569885,33.7994957 Z M38.7756484,36.4458934 L40.423487,36.4458934 L40.423487,39.4508646 L38.7756484,39.4508646 L38.7756484,36.4458934 L38.7756484,36.4458934 Z M39.9114553,31.0811239 L42.8025216,31.0811239 L42.8025216,34.0962536 L39.9114553,34.0962536 L39.9114553,31.0811239 L39.9114553,31.0811239 Z M45.1945245,36.4435159 L45.1945245,39.4722622 L42.3090778,39.4722622 L42.3090778,36.4435159 L45.1945245,36.4435159 L45.1945245,36.4435159 Z M50.0574207,33.6079971 L57.5139769,33.6079971 L57.5139769,41.7360951 L55.4100865,41.7360951 L55.4100865,36.4603746 L52.2153458,36.4603746 L52.2153458,41.746902 L50.0574207,41.746902 L50.0574207,33.6079971 L50.0574207,33.6079971 Z M55.682853,24.2219741 C56.8080692,22.6698847 57.9514409,21.1309798 59.0954611,19.5819164 C60.8699568,21.990562 62.639049,24.3892651 64.4012248,26.7929395 C64.4714697,26.8886888 64.5067003,27.0324207 64.5067003,27.1538905 C64.5092939,29.5303314 64.5103746,31.907853 64.5108069,34.2903458 C64.5112392,36.525 64.5112392,38.7665706 64.5110231,41.0146254 L64.5108069,41.0148415 C63.1048271,41.1369597 61.7113833,41.3007925 60.3298271,41.5026657 L60.3291787,41.5026657 L60.3291787,38.3712536 L62.7566282,38.3712536 L62.7566282,35.2845821 L60.3211816,35.2845821 L60.3211816,33.5941643 L61.9363833,33.5941643 C61.8084294,33.3209654 61.7206772,33.1337896 61.6117435,32.9014409 L62.7600865,32.9014409 L62.7600865,29.7205331 L59.8519452,29.7205331 C59.8415706,29.9457493 59.8316282,30.1610231 59.8158501,30.5005764 C59.0684438,29.4678674 58.3897695,28.5300432 57.6520893,27.5107349 L60.3773775,27.5107349 L60.3773775,24.4815562 L57.4528098,24.4815562 L57.4528098,27.223487 C56.7791066,26.2997118 56.1925072,25.5162104 55.6383285,24.7102305 C55.5650576,24.6036744 55.5976945,24.3395533 55.682853,24.2219741 L55.682853,24.2219741 Z M68.3027378,35.3178674 L71.3148415,35.3178674 L71.3148415,40.7492075 C71.1432277,40.7481268 70.9731268,40.7399135 70.8012968,40.7399135 C70.3579971,40.7399135 69.9159942,40.7457493 69.4748559,40.7550432 C69.0832133,40.7621758 68.6928674,40.7740634 68.3027378,40.7872478 L68.3027378,35.3178674 L68.3027378,35.3178674 Z M78.2176513,35.306196 L81.1324928,35.306196 L81.1324928,38.3096542 L78.2176513,38.3096542 L78.2176513,35.306196 L78.2176513,35.306196 Z M78.2282421,29.7138329 L81.117147,29.7138329 L81.117147,32.8407061 L78.2282421,32.8407061 L78.2282421,29.7138329 L78.2282421,29.7138329 Z M80.6288905,24.4666427 L83.5262248,24.4666427 L83.5262248,27.4752882 L80.6288905,27.4752882 L80.6288905,24.4666427 L80.6288905,24.4666427 Z M86.020245,32.8571326 L83.0182997,32.8571326 L83.0182997,29.7142651 L86.020245,29.7142651 L86.020245,32.8571326 L86.020245,32.8571326 Z M86.0533141,38.3068444 L83.0254323,38.3068444 L83.0254323,35.3090058 L86.0533141,35.3090058 L86.0533141,38.3068444 L86.0533141,38.3068444 Z M90.9940202,26.9943804 L98.3185159,26.9943804 C98.5361671,27.6123199 98.2735591,28.1118156 97.9035303,28.6123919 C96.7201729,30.2126801 95.5571326,31.8283141 94.3184438,33.5310519 L95.8599424,33.5310519 L95.8599424,35.2467579 L93.3780259,35.2467579 L93.3780259,41.7404179 L90.9940202,41.7404179 L90.9940202,26.9943804 L90.9940202,26.9943804 Z M98.6007925,39.8100865 C98.6200288,38.1201009 98.5934438,36.429683 98.6206772,34.7399135 C98.6254323,34.4528818 98.7460375,34.1254323 98.9148415,33.8896254 C100.690634,31.4079251 102.486744,28.9409222 104.279611,26.4715418 C104.331916,26.3993516 104.410807,26.3463977 104.522334,26.2426513 C105.146758,27.1067723 105.75,27.9555476 106.367939,28.7935159 C107.495317,30.3224784 108.636744,31.8412824 109.755692,33.376513 C109.863329,33.5243516 109.890562,33.7579971 109.891427,33.9523055 C109.900937,35.9081412 109.885807,37.8644092 109.903963,39.820245 C109.909798,40.4513689 109.993228,41.0816282 110.04402,41.7458213 L98.4600865,41.7458213 C98.5113112,41.073415 98.5934438,40.4422911 98.6007925,39.8100865 L98.6007925,39.8100865 Z M113.684654,36.4445965 L116.693948,36.4445965 L116.693948,41.732853 L113.684654,41.732853 L113.684654,36.4445965 L113.684654,36.4445965 Z M14.8634006,67.549928 C7.73991354,76.4018732 2.67427954,86.9783862 0.38926513,98.5556196 L5.95180115,98.5556196 C7.63270893,90.7188761 10.6899856,83.3932997 14.8634006,76.8492795 C17.6502882,72.4791787 20.9358069,68.4598703 24.6369597,64.8667867 L24.6153458,64.8704611 C27.5552594,62.0278098 30.8652017,59.3623919 34.2860231,57.0992075 C44.754683,50.1732709 57.3010807,46.1373199 70.8012968,46.1373199 C80.4631124,46.1373199 89.6133285,48.2461816 97.8821326,51.9752161 L97.8726225,51.9767291 C99.8025216,52.8631124 101.689841,53.8270893 103.524856,54.8727666 C104.573559,53.3420749 105.778746,51.9298271 107.104971,50.6407781 L107.143228,50.6340778 C111.760807,46.2817003 117.979323,43.6089337 124.825504,43.6089337 C128.653746,43.6089337 132.283573,44.4494957 135.550288,45.9458213 C135.742435,46.0337896 135.935447,46.1200288 136.125,46.2127522 L136.125,36.4139049 L137.265346,36.4139049 L137.265346,36.1856628 C136.859222,35.6807637 136.431052,35.1916427 136.050432,34.6679395 C135.883141,34.437536 135.717147,34.206268 135.550288,33.9756484 C134.034942,31.8838617 132.529539,29.7847262 131.007493,27.6979107 C130.900072,27.5507205 130.663184,27.4273055 130.480331,27.4184438 C129.801441,27.3855908 129.119741,27.4054755 128.377089,27.4054755 L128.377089,25.7221902 L125.652233,25.7221902 L125.652233,27.3836455 L124.004179,27.3836455 C125.418588,29.3507205 126.768372,31.2274496 128.146037,33.1435159 C128.67428,32.4298271 129.179827,31.7470461 129.744597,30.9838617 C130.17255,31.5503602 130.588184,32.0861671 130.988473,32.632781 C131.967579,33.9698127 132.94085,35.310951 133.91196,36.6538184 C133.984366,36.7541066 134.064337,36.8809798 134.065202,36.9959654 C134.075144,38.5685879 134.071902,40.1409942 134.071902,41.7434438 L123.510951,41.7434438 L123.510951,33.5857349 L125.162896,33.5857349 C124.596182,32.7773775 124.110303,32.0667147 123.606052,31.3692363 C122.285447,29.5424352 120.952305,27.724928 119.632997,25.8972622 C118.619524,24.4934438 117.625288,23.0760086 116.604035,21.6782421 C116.516931,21.5589337 116.291282,21.4841499 116.129827,21.4839337 C111.873199,21.4733429 107.616787,21.4729107 103.360375,21.485879 C103.194597,21.4863112 102.973703,21.5943804 102.872983,21.7251441 C102.252882,22.5315562 101.659798,23.3589337 101.016138,24.2358069 C100.316066,23.2724784 99.6326369,22.3420029 98.9595821,21.4039625 C97.4509366,19.3024496 95.9522334,17.193804 94.4317003,15.1011527 C94.3329251,14.9649856 94.0832853,14.87183 93.9034582,14.8713977 C89.6280259,14.8586455 85.3525937,14.8579971 81.0771614,14.8746398 C80.9029539,14.8752882 80.6742795,15.026585 80.5642651,15.1763689 C79.0430836,17.2480548 77.5385447,19.3316282 76.0279539,21.4110951 C76.0085014,21.4376801 75.9644092,21.4463256 75.8643372,21.4988473 C75.3131844,20.7274496 74.7579251,19.9456772 74.1979107,19.1673631 C73.207781,17.7912104 72.2195965,16.4139769 71.2145533,15.0490634 C71.1345821,14.9401297 70.9316282,14.8694524 70.7857349,14.8692363 C66.4912824,14.8597262 62.19683,14.8586455 57.9023775,14.8733429 C57.7413545,14.8739914 57.5291066,15.0103746 57.4279539,15.1476225 C55.9478386,17.1579251 54.484366,19.1805476 53.0087896,21.1943084 C52.9216859,21.3131844 52.7677954,21.4612392 52.6435159,21.4627522 C51.0708934,21.4809078 49.4978386,21.4746398 47.882853,21.4746398 L47.882853,18.6693804 L45.1376801,18.6693804 L45.1376801,21.4755043 C43.5804035,21.4755043 42.0845101,21.5018732 40.5903458,21.4618876 C40.0270893,21.4467579 39.7128242,21.6622478 39.4026657,22.1064121 C37.9958213,24.1212536 36.5528818,26.1110231 35.1205331,28.1081412 C35.0909222,28.1494236 35.0317003,28.1697406 34.948487,28.225072 C34.3208213,27.3670029 33.6728386,26.5327089 33.0888329,25.6556196 C32.8804755,25.3428674 32.6770893,25.229611 32.3193804,25.2324207 C30.6108069,25.2462536 28.9020173,25.2386888 27.1305476,25.2386888 L27.1305476,23.6777378 L24.3853746,23.6777378 L24.3853746,25.2386888 C23.6511527,25.2386888 22.9528098,25.2814841 22.262464,25.225072 C21.7132565,25.1801153 21.4487032,25.4349424 21.1545389,25.846902 C19.0724784,28.7623919 16.9657781,31.6599424 14.8634006,34.5607349 C14.7581412,34.7059798 14.653098,34.8510086 14.5478386,34.9960375 C14.5288184,35.0224063 14.4832133,35.0293228 14.449928,35.0455331 L14.449928,35.387464 L14.8634006,35.387464 L15.8182997,35.387464 C15.8182997,45.6974784 15.8131124,56.1224784 15.8128963,66.3946686 C15.4925793,66.776585 15.1759366,67.1615274 14.8634006,67.549928 L14.8634006,67.549928 Z" id="Fill-25" fill="#495e7a"></path>
                    <path d="M38.4110231,18.8092219 L40.5564121,18.8092219 C40.6878242,18.3948847 40.7215418,17.9967579 40.9197406,17.7138329 C41.9563401,16.2341499 43.0322767,14.7821326 44.0993516,13.3240634 C44.5692363,12.6823487 45.0505764,12.0490634 45.5684438,11.3561239 C45.7169308,11.5208213 45.8258646,11.6230548 45.9129683,11.7410663 C46.8412824,12.9998559 47.8028818,14.2363833 48.6804035,15.5299712 C49.3575648,16.5287464 50.4354467,17.3664986 50.1918588,18.8401297 C50.7382565,18.7811239 51.3146974,19.0813401 51.756268,18.4497839 C53.0680115,16.5737032 54.4279539,14.7313401 55.7414265,12.8563401 C56.0487752,12.4175793 56.3539625,12.182853 56.9282421,12.2224063 C57.8085735,12.2829251 58.6962536,12.2381844 59.5793948,12.2381844 L59.5793948,10.1340778 C58.2207493,10.4150576 57.087536,10.192219 56.6319164,8.6824928 C57.1755043,7.9471902 57.7793948,7.12997118 58.420245,6.26304035 C58.5492795,6.41714697 58.6409222,6.51462536 58.7191643,6.62182997 C59.9364553,8.29236311 61.171902,9.95036023 62.3541787,11.645317 C62.6619597,12.0862392 62.971902,12.2543948 63.50317,12.2498559 C66.3337176,12.2252161 69.1649135,12.2321326 71.9956772,12.2496398 C72.2282421,12.2511527 72.5414265,12.3477666 72.676513,12.5144092 C73.1087896,13.0465418 73.4660663,13.6385447 73.8685159,14.1959654 C74.529683,15.1123919 75.2036023,16.0197406 75.8945965,16.9614553 C76.0149856,16.8525216 76.1128963,16.7900576 76.1760086,16.7025216 C77.0792507,15.448487 77.9993516,14.2056916 78.8660663,12.9270173 C79.2004323,12.4337896 79.540634,12.2152738 80.1726225,12.2198127 C84.9603026,12.2535303 89.748415,12.2381844 94.5363112,12.2381844 L95.1641931,12.2381844 C95.0364553,12.0231268 94.9701009,11.8895533 94.8840778,11.7698127 C93.3190202,9.59286744 91.7362392,7.42824207 90.1956052,5.2342219 C89.8376801,4.72456772 89.4417147,4.52809798 88.8382565,4.58861671 C88.3538905,4.6370317 87.860879,4.59834294 87.3110231,4.59834294 L87.3110231,2.9295389 L84.5662824,2.9295389 L84.5662824,4.59834294 L83.9697406,4.59834294 C82.2786744,4.59834294 80.5876081,4.59142651 78.8969741,4.60785303 C78.7020173,4.60979827 78.4322767,4.68479827 78.326585,4.82399135 C77.6174352,5.75835735 76.9450288,6.72038905 76.2574928,7.67139769 C75.5989193,8.58242075 74.9366715,9.49085014 74.2571326,10.426513 C74.1270173,10.2430115 74.031268,10.1068444 73.9342219,9.97132565 C72.2107349,7.56505764 70.4837896,5.16095101 68.7674352,2.74971182 C68.5290346,2.41491354 68.2554035,2.29430836 67.8363112,2.30576369 C66.6283141,2.33926513 65.4185879,2.3176513 64.1690922,2.3176513 L64.1690922,0.0367435159 L61.4321326,0.0367435159 L61.4321326,2.3176513 C60.0981268,2.3176513 58.8458213,2.3221902 57.593732,2.31440922 C57.2974063,2.31268012 57.1054755,2.36606628 56.9057637,2.65396254 C55.9184438,4.07680115 54.8643372,5.45317003 53.8770173,6.87600865 C53.6407781,7.21621037 53.4172911,7.3454611 53.0148415,7.34308357 C50.2789625,7.32795389 47.5428674,7.32989914 44.8069885,7.3454611 C44.5895533,7.34654179 44.2899856,7.42759366 44.1700288,7.58170029 C43.6227666,8.28544669 43.1323487,9.03306916 42.6099424,9.75670029 C41.2800432,11.5990634 39.9412824,13.4353746 38.6115994,15.27817 C38.1067003,15.9780259 37.6169308,16.689121 37.0517291,17.4922911 L38.4110231,17.4922911 L38.4110231,18.8092219" id="Fill-26" fill="#495e7a"></path>
                    <path d="M101.045101,19.7256484 C102.806412,17.3461816 104.526009,15.0233429 106.244308,12.7020173 C106.29013,12.7225504 106.336167,12.7279539 106.354971,12.7534582 C107.711455,14.6001441 109.077882,16.4396974 110.410159,18.3038905 C110.685303,18.6886167 110.967147,18.8658501 111.443948,18.860879 C113.438905,18.8403458 115.43451,18.8474784 117.429683,18.8602305 C117.612968,18.8615274 117.87147,18.9183718 117.966787,19.0456772 C118.726297,20.057853 119.45317,21.0946686 120.193444,22.1215418 C120.794741,22.9556196 121.400576,23.7864553 122.105403,24.7575648 L122.105403,18.7223343 L123.444164,18.7223343 C123.306268,18.5072767 123.222406,18.3628963 123.125576,18.2275937 C121.011311,15.2757925 118.885375,12.3322046 116.789914,9.36721902 C116.423343,8.84848703 116.026513,8.64099424 115.38804,8.68789625 C114.525648,8.75122478 113.655043,8.70367435 112.726513,8.70367435 L112.726513,6.45216138 L110.115346,6.45216138 L110.115346,8.70367435 C108.516571,8.70367435 106.980259,8.68876081 105.444813,8.71966859 C105.214841,8.72420749 104.916138,8.88717579 104.773703,9.07240634 C103.990418,10.0917147 103.242363,11.1382565 102.488689,12.1800432 C101.407997,13.6737752 100.328602,15.1683718 99.2634726,16.6731268 C99.1774496,16.7948127 99.1255764,17.0533141 99.1949568,17.1540346 C99.7793948,18.0043228 100.396037,18.832781 101.045101,19.7256484" id="Fill-27" fill="#495e7a"></path>
                    <path d="M131.931484,62.9206772 C129.982997,64.8665706 128.03451,66.812464 126.086239,68.7585735 C125.47219,69.3715418 124.858357,69.9847262 124.244524,70.5979107 C124.141643,70.7005764 124.118948,70.764121 124.020605,70.7429395 C123.858934,70.7081412 123.575793,70.2996398 123.461023,70.1853026 C122.456628,69.1839337 121.452233,68.182781 120.447839,67.1816282 C118.270461,65.010951 116.093084,62.8402738 113.915706,60.6698127 C113.845029,60.5993516 113.774568,60.5288905 113.70389,60.4586455 L113.70389,67.3981988 L113.70389,72.0330692 C113.70389,72.2770893 113.624135,72.6957493 113.731556,72.9134006 C113.847839,73.1489914 114.209222,73.3910663 114.392291,73.5741354 C116.686599,75.8684438 118.980908,78.1627522 121.275216,80.4570605 C122.127233,81.3090778 122.979467,82.1613112 123.831484,83.0133285 C123.933718,83.115562 123.993804,83.223415 124.096902,83.204611 C124.2683,83.1737032 124.603746,82.6977666 124.722406,82.5791066 C126.989914,80.3115994 129.257421,78.0440922 131.524928,75.776585 C132.896326,74.4051873 134.267723,73.0337896 135.639337,71.6623919 C137.464625,69.8368876 139.29013,68.0113833 141.115634,66.1860951 C143.312464,63.989049 145.509294,61.792219 147.70634,59.595389 C148.224424,59.0770893 148.742723,58.5587896 149.261023,58.0407061 C149.496182,57.8055476 149.453818,57.7316282 149.453818,57.3983429 L149.453818,55.7072767 L149.453818,46.1258646 L149.453818,45.4206052 C147.679971,47.1920749 145.906124,48.9637608 144.132277,50.7352305 C143.880043,50.9872478 143.62781,51.239049 143.375576,51.4910663 C141.220677,53.6429395 139.065994,55.7950288 136.911311,57.9471182 C135.251369,59.6048991 133.591427,61.2626801 131.931484,62.9206772" id="Fill-28" fill="#495e7a"></path>
                    <path d="M114.429683,48.8213256 C106.509078,52.764121 101.406268,61.1978386 101.661311,70.095389 C101.871398,77.4293948 105.688833,84.4033141 111.767075,88.5162104 C119.034726,93.4340058 128.702378,93.7575648 136.286671,89.34683 C143.71513,85.0266571 148.214265,76.6724784 147.690562,68.0809798 C147.620965,66.935879 147.465994,65.7963977 147.227161,64.6744236 C145.808429,66.0335014 144.389697,67.3925793 142.970965,68.7516571 C142.599856,69.1072046 142.596398,69.0721902 142.590994,69.6386888 C142.578674,70.8711095 142.439481,72.1020173 142.174063,73.3054755 C141.69683,75.4690202 140.813689,77.5428674 139.583213,79.3854467 C137.232709,82.9054755 133.628818,85.5149135 129.557637,86.6680115 C125.407133,87.8435879 120.913617,87.4595101 117.015778,85.614121 C110.157925,82.3672911 106.021037,74.87183 106.918444,67.3383285 C107.831844,59.6706052 113.728314,53.329755 121.304827,51.8615274 C124.97745,51.1497839 128.839193,51.6257205 132.23062,53.2050432 C132.735303,53.4399856 133.228963,53.6989193 133.709438,53.9803314 C133.946974,54.1195245 134.181484,54.264121 134.41232,54.4139049 C134.519524,54.4832853 134.998055,54.885951 135.101369,54.8654179 C135.23732,54.8386167 135.4433,54.5340778 135.550288,54.4303314 C135.729683,54.2563401 135.909078,54.0823487 136.088473,53.9085735 C136.758285,53.2590778 137.428314,52.609366 138.098343,51.9598703 C138.342147,51.723415 138.585951,51.4869597 138.829971,51.2505043 C131.902954,45.8639049 122.277017,44.9148415 114.429683,48.8213256" id="Fill-29" fill="#495e7a"></path>
                </g>
            </g>
        </g>
    </g>
</svg>